<svg xmlns="http://www.w3.org/2000/svg" viewBox="0 0 2000 3000"><g data-name="Layer 2"><ellipse cx="968.72" cy="2662.61" rx="799.35" ry="97.18" style="mix-blend-mode:multiply" fill="#e3e3e3"/><path fill="#d17e42" d="M243.42 1172.81a94.46 94.46 0 0 0-94.35 94.35v68.17a14.45 14.45 0 1 0 28.89 0v-68.17a65.46 65.46 0 0 1 130.92 0V2668h28.89V1267.16a94.46 94.46 0 0 0-94.35-94.35Z"/><path fill="#854025" d="M243.42 1165.59a101.69 101.69 0 0 0-101.58 101.57v68.17a21.67 21.67 0 0 0 43.34 0v-68.17a58.24 58.24 0 0 1 116.47 0v192.77H345v-192.77a101.68 101.68 0 0 0-101.58-101.57Z"/><path fill="#f57e5a" d="M1144.05 2431.43c12.64 33.41 28.89 93.9-27.09 106.54s-212.18 77.65-230.24 130h466.79c8.13-28 1.81-101.13-27.08-157.11s-30.7-102-30.7-102Z"/><path fill="#26315c" d="M1350.53 2581.11c-26.69 32.6-143.58 31.4-167.36 14.65 0 0-3.94-51.08-47.3-65.39A58.54 58.54 0 0 1 1117 2538c-56 12.64-212.18 77.65-230.24 130h466.79c4.89-17 4.45-50.59-3.02-86.89Z"/><path fill="#4a5fb3" d="M1337.26 2651.73H921.94a1.81 1.81 0 1 1 0-3.61h415.32a1.81 1.81 0 1 1 0 3.61Z"/><path fill="#ff8863" d="M1389.63 2431.43c12.64 33.41 28.89 93.9-27.09 106.54s-212.17 77.65-230.23 130h466.79c8.12-28 1.8-101.13-27.09-157.11s-30.7-102-30.7-102Z"/><path fill="#2c396b" d="M1596.11 2581.11c-26.69 32.6-143.57 31.4-167.35 14.65 0 0-4-51.08-47.31-65.39a58.44 58.44 0 0 1-18.91 7.6c-56 12.64-212.17 77.65-230.23 130h466.79c4.9-16.97 4.53-50.56-2.99-86.86ZM1177.75 1211.93c-24.68 107.15-205.25 450.24-187.2 540.53s127.61 674.15 118.58 699.44c75.85 25.28 199.24-15.05 199.24-15.05l11.44-108.35c6.62 56 4.21 122.19 4.21 122.19 113.16 13.24 225.72-.6 238.36-28.29 9.63-115.57-23.47-614.56-134.23-773.47 19.26 7.22 4.82-21.67 4.82-21.67 16.85-12 57.78-127.61 108.34-216.69s178.17-166.13 137.24-409.31-166.13-272.07-166.13-272.07Z"/><path fill="#192247" d="M1326.42 2388.09a1.8 1.8 0 0 1-1.79-1.69c-11.5-185.57-95.61-430.41-123.26-510.86-2.79-8.14-5.06-14.73-6.67-19.58-4-11.89-9.31-25.89-15-40.7-20.5-53.69-46-120.5-37.47-166.06 11-58.9 63.2-358.18 65-427.68a1.91 1.91 0 0 1 1.85-1.76 1.81 1.81 0 0 1 1.76 1.85c-1.79 69.72-54 369.3-65 428.26-8.35 44.55 17 110.84 37.29 164.11 5.67 14.84 11 28.87 15 40.84 1.61 4.84 3.87 11.42 6.66 19.54 27.68 80.57 111.91 325.76 123.44 511.81a1.8 1.8 0 0 1-1.69 1.92ZM1528.67 1158.36c-26.58 0-63-10.46-72.22-100.94a1.8 1.8 0 1 1 3.59-.36c8.84 86.59 41.32 97.69 68.63 97.69a1.81 1.81 0 1 1 0 3.61Z"/><path fill="#192247" d="M1508.81 2431.43h-.1a1.81 1.81 0 0 1-1.7-1.9c12.59-230.2-105.33-654.78-126.12-686.92-19.9-30.76-20.58-36.66-7.32-63.19 5.09-10.18 6.38-17.91 3.94-23.62-2.71-6.32-10-10.92-24.53-15.38a7 7 0 0 1-4.38-4.33c-11.82-27.83 55.37-201.56 118.87-326.86 58.9-116.2 105.78-242.38 50.5-377.71a1.81 1.81 0 0 1 3.35-1.37c55.82 136.68 8.66 263.75-50.62 380.71-62.78 123.85-129.91 297.6-118.78 323.82a3.59 3.59 0 0 0 2.13 2.29c11 3.39 22.79 8.11 26.78 17.41 2.92 6.84 1.64 15.31-4 26.66-12.16 24.32-12.55 29.2 7.12 59.61 20.89 32.27 139.32 458.28 126.69 689.07a1.8 1.8 0 0 1-1.83 1.71Z"/><path fill="#ff8863" d="M1433.87 606.7c-14.45 41.53-5.42 68.62 37 89.39s89.38 21.67 90.29 31.6 21.67 84.87 57.78 68.62c7.23 10.83 28.89.9 30.7-13.55 8.13 5.42 11.74-9.93 10.83-12.64-9-11.73-28.89-87.58-37.92-100.22s-51.46-13.54-77.64-31.6-32.51-88.48-32.51-88.48ZM406.69 1100.58c-35.51 12.64-135.43 0-158.91 4.81s-54.77 27.69-78.25 40.33-25.28 60.8-20.46 67.42c-9 24.08-9.63 38.52-.6 43.94s25.28-12 35.51-32.5 19.26-31.91 39.12-33.11 65 0 49.36 9-33.71 27.69-34.91 45.14 20.47 21.67 25.88 9 27.69-28.29 51.17-27.09 36.71-3.61 51.76-25.28c19.26-5.41 71.63-.6 71.63-.6L426.55 1127Z"/><path fill="#ffc754" d="M677 663c-24.07 54.17-9.63 132.42 10.84 208.27s32.5 211.87 19.26 211.87-4.82 25.28-20.47 13.25-9.63-9.64-43.33-1.21-246.79 0-246.79 0c24.07 53 25.28 125.2 25.28 125.2 2.41 7.22 225.12 61.4 357.54 54.17 74.64-2.4 85.47-30.09 87.88-47 44.54-107.14 43.34-268.45 43.34-268.45 59 20.46 217.9 49.35 231.14 93.9s36.11 158.9 36.11 158.9c55.38 20.47 410.51-102.32 403.29-445.42-198.63-166.13-449-210.67-449-210.67l164.92-125.2 101.13 186.6c47 21.66 134.83-62.6 136-66.22-86.68-104.73-99.92-267.25-162.52-303.37s-260 67.42-352.72 133.63S721.5 512.5 692.6 582.32 677 663 677 663Z"/><path fill="#f0eae6" d="M559.58 368.64c11.43-6.62 14.44 3 14.44 3 46.35-13.24 30.7 22.27 30.7 22.27 51.17 13.24 40.93 54.78 37.92 72.83s5.42 45.75 5.42 45.75-56.58 60.79-58.39 60.79-90.89-10.83-90.89-10.83S414.51 474 381.41 480.6s-30.7-61.4-10.23-69.22c-29.5.6-29.5-28.29-12-30.1s34.31-14.44 78.85-27.69 84.87-10.83 96.31-1.8c12.6-21.07 25.24 16.85 25.24 16.85Z"/><path fill="#ff8863" d="M534.3 404.15c13.84 11.44 15.05 27.69 13.24 51.17s17.46 30.09 30.1 25.28c-2.41 39.12 7.22 51.16 37.92 41.53 12-42.74 44.54-33.1 57.18-15.05s3.61 56 3.61 56c14.45 14.45 62.6-8.42 64.41-8.42 19.26 15.65 17.45 125.8 1.8 158.3s-48.75-10.83-51.76-37.32c-19.87 15-62 1.21-62 1.21 0 18-10.23 37.31-38.52 43.33-21.07 38.53-65 47.56-99.32 34.31-34.91 9.63-54.17-37.32-66.21-80.65s-48.16-87.28-55.38-101.73S367 542 370 532.36s.6-109.55 30.1-123.39c21.04 40.93 134.2-4.82 134.2-4.82Z"/><ellipse cx="518.57" cy="572.84" fill="#2e0b06" rx="7.67" ry="13.77" transform="rotate(-23.85 518.578 572.837)"/><path fill="#2e0b06" d="M518.35 599.18a1.81 1.81 0 0 1-.43-3.56c16.62-4.09 16.4-17.19 16.38-17.75A1.81 1.81 0 0 1 536 576a1.78 1.78 0 0 1 1.87 1.73c0 .16.43 16.57-19.13 21.38a1.65 1.65 0 0 1-.39.07ZM442.07 600.44c3.08 6.95 2.43 14-1.45 15.69s-9.51-2.53-12.58-9.49-2.43-14 1.45-15.69 9.51 2.53 12.58 9.49ZM434.83 629.87a1.8 1.8 0 0 1-.43-3.55c16.63-4.09 16.4-17.19 16.38-17.75a1.81 1.81 0 0 1 1.74-1.86 1.78 1.78 0 0 1 1.87 1.73c0 .16.43 16.57-19.13 21.38a1.58 1.58 0 0 1-.43.05Z"/><path d="M540.31 565.47a1.82 1.82 0 0 1-1.8-1.67c-.13-1.73.83-3.58 2.77-5.35 3.46-3.14 10.1-5.94 15.6-5a1.81 1.81 0 0 1 1.47 2.09 1.84 1.84 0 0 1-2.09 1.47c-4.15-.72-9.75 1.56-12.55 4.11-1.15 1-1.63 2-1.59 2.4a1.82 1.82 0 0 1-1.67 1.94Z" style="mix-blend-mode:multiply" fill="#ebbeb0"/><path d="M542.72 567.88a1.81 1.81 0 0 1-1-3.3c5.49-3.77 13.3-1.23 13.63-1.12a1.8 1.8 0 1 1-1.14 3.42c-.06 0-6.45-2.07-10.44.68a1.79 1.79 0 0 1-1.05.32ZM478.32 546.21a1.76 1.76 0 0 1-.63-.12c-2.88-1.07-8.22-6.39-11.11-14.83-2.53-7.4-3.75-19.12 4.78-32.95a1.81 1.81 0 0 1 3.08 1.9c-7.8 12.63-6.72 23.22-4.44 29.88 2.53 7.42 7.16 11.95 8.95 12.62a1.81 1.81 0 0 1-.63 3.5ZM434.08 557.34a1.78 1.78 0 0 1-.59-.1 1.8 1.8 0 0 1-1.12-2.29c.21-.63 5.09-15.67-9.75-29.39a1.8 1.8 0 0 1 2.45-2.65c16.63 15.37 11 32.5 10.72 33.22a1.8 1.8 0 0 1-1.71 1.21Z" style="mix-blend-mode:multiply" fill="#ebbeb0"/><path fill="#2e0b06" d="M480.87 664.84c-19.4 0-26.5-8-28.37-10.81-2.44-3.62-2.83-7.7-1-10.89a2.32 2.32 0 0 1 .3-.4c1.12-1.25 11.27-18.07 12.42-29.6.82-8.19-10-20.35-17.91-29.23-3-3.33-5.51-6.2-7.32-8.64a1.79 1.79 0 0 1 .37-2.52 1.81 1.81 0 0 1 2.53.37c1.71 2.31 4.34 5.26 7.12 8.39 8.82 9.9 19.78 22.23 18.8 32-1.18 11.87-11.11 28.85-13.22 31.53-1 2-.68 4.57.94 7 3.88 5.77 15.18 11.05 35.25 8.57a1.8 1.8 0 1 1 .44 3.58 83.36 83.36 0 0 1-10.35.65Z"/><path fill="#2e0b06" d="M486.14 659.37a1.8 1.8 0 0 1-1.8-1.67 2.8 2.8 0 0 1 .9-2.25c3.1-2.93 17.4-1.38 23.41-.58a1.81 1.81 0 0 1-.47 3.58c-8.34-1.11-18.21-1.54-20.27-.49a1.83 1.83 0 0 1-1.63 1.41Z"/><path d="M516.24 659.37a1.81 1.81 0 0 1-.88-3.38 5.06 5.06 0 0 0 2.62-4.56c-.05-2.84-2.3-5.61-6.18-7.61a1.81 1.81 0 1 1 1.66-3.21c5.09 2.63 8.06 6.55 8.13 10.75a8.73 8.73 0 0 1-4.46 7.78 1.79 1.79 0 0 1-.89.23Z" style="mix-blend-mode:multiply" fill="#ebbeb0"/><path fill="#2e0b06" d="M477.72 697.89a1.79 1.79 0 0 1-1.78-1.83c.06-3.45 1.88-6.58 5.42-9.3 15.79-12.15 64.52-14.19 85.6-9a1.81 1.81 0 0 1-.86 3.51c-20.46-5.06-67.49-3.25-82.53 8.33-2.63 2-4 4.21-4 6.5a1.81 1.81 0 0 1-1.85 1.79Z"/><path d="M572.82 692.17a1.8 1.8 0 0 1-.25-3.59c1.53-.22 2.93-1.75 3.65-4 1.62-5 .06-13.55-9.17-22.4a1.81 1.81 0 0 1 2.51-2.61c10.42 10 12.05 20 10.1 26.12-1.17 3.63-3.63 6-6.59 6.47ZM500.29 716.55a1.81 1.81 0 0 1-1.81-1.76c-.1-4.31 2.18-8 6.59-10.61 8.36-5 22.71-5 31.33 0a1.81 1.81 0 1 1-1.8 3.13c-7.5-4.31-20.44-4.3-27.69 0-3.27 1.94-4.89 4.44-4.82 7.41a1.8 1.8 0 0 1-1.76 1.85ZM637.23 573a1.8 1.8 0 0 1-.49-3.54c8.54-2.41 10.31-9.78 10.67-12.84.71-5.89-1.59-11.74-5.46-13.91-3.45-2-7.83-1-12.64 2.82a1.78 1.78 0 0 1-1.78.26 1.82 1.82 0 0 1-1.12-1.42c-2.3-15.66.45-28.71 7.56-35.8 5.1-5.09 12.17-7 21-5.67a1.81 1.81 0 0 1 1.52 2.05 1.84 1.84 0 0 1-2.06 1.52c-7.63-1.15-13.64.43-17.89 4.66-5.77 5.75-8.28 16.75-6.91 29.78 6.76-4.19 11.65-2.73 14.11-1.35 5.17 2.9 8.16 10.09 7.28 17.48-.94 7.88-5.9 13.82-13.28 15.9a2.12 2.12 0 0 1-.51.06ZM630 662.38a1.74 1.74 0 0 1-.59-.1 1.82 1.82 0 0 1-1.13-2.29c.07-.19 6.32-19.54-3.07-65.87a1.81 1.81 0 0 1 2.72-1.9c3.48 2.14 13 3.38 22.41-.74 6.69-2.93 15.27-9.56 18.21-24.55a1.8 1.8 0 1 1 3.54.69c-3.24 16.52-12.82 23.89-20.3 27.17-7.91 3.46-16.68 3.67-22.38 2 8.66 45.06 2.56 63.62 2.29 64.41a1.8 1.8 0 0 1-1.7 1.18ZM682.93 605.51a137.38 137.38 0 0 1-15.81-.93 1.8 1.8 0 0 1-1.59-2 1.82 1.82 0 0 1 2-1.58c37.52 4.29 56.88-7.89 59-11.73a1.81 1.81 0 0 1 3.17 1.73c-3.2 5.78-19.62 14.51-46.77 14.51ZM698 625.06a1.81 1.81 0 0 1-.21-3.6c.15 0 15.14-1.91 26-13.86a1.81 1.81 0 0 1 2.68 2.42 49 49 0 0 1-28.22 15Z" style="mix-blend-mode:multiply" fill="#ebbeb0"/><path fill="#ff8863" d="M536.11 401.75a1.81 1.81 0 0 1-1-3.32c.13-.09 13.28-8.85 16.68-23.57a1.81 1.81 0 1 1 3.52.81c-3.73 16.17-17.64 25.4-18.23 25.78a1.79 1.79 0 0 1-.97.3Z"/><path fill="#f0eae6" d="M474.56 530c7.22 9.48 13.81 18.2 38.82 4.51 23.93-13.09 24.38-30.7 24.38-30.7-14.45 8.09-55.53 26.6-63.2 26.19ZM424.75 541.43c2.1 10.5 2.1 22.23-22.88 25.54-27 3.59-32.2-11.43-32.2-11.43 16.43-2.17 49.22-9.14 55.08-14.11Z"/><path fill="#ffe9bd" d="M439.8 1225.18a2 2 0 0 1-.42 0A1.8 1.8 0 0 1 438 1223c.17-.72 16.55-72-16.86-117.7a1.81 1.81 0 1 1 2.92-2.13c34.4 47.07 17.62 119.93 17.45 120.66a1.81 1.81 0 0 1-1.71 1.35Z"/><path fill="#f59b55" d="M679.06 1166.49a1.92 1.92 0 0 1-.41 0 1.8 1.8 0 0 1-1.35-2.17c3.12-13.26 3.34-28.11 3.5-39 .16-11.51.23-16.28 3.17-17 2.31-.55 4.18 2.07 6.62 6.75 5.71 10.93 13.32 16.8 16.84 15.44 2.41-.94 4-6.62.58-19.56a1.8 1.8 0 0 1 3.49-.92c4.76 18 .31 22.65-2.77 23.85-6 2.33-15-4.89-21.34-17.14a32.26 32.26 0 0 0-2.4-4.06c-.44 2.45-.51 7.82-.58 12.67-.16 11-.38 26.08-3.59 39.73a1.81 1.81 0 0 1-1.76 1.41ZM789.84 1247.91a77.92 77.92 0 0 1-12.66-1.09 1.8 1.8 0 1 1 .59-3.56c16.43 2.69 29.77.13 39.6-7.63 15.31-12.08 17-32.94 17-33.15a1.85 1.85 0 0 1 1.93-1.68 1.82 1.82 0 0 1 1.67 1.93c-.06.92-1.76 22.62-18.32 35.72-7.98 6.29-17.97 9.46-29.81 9.46ZM912 952.51c-56.59-1.29-132.72-17.37-174-86.66a1.81 1.81 0 0 1 3.11-1.85c40.4 67.87 115.25 83.63 170.94 84.89a1.81 1.81 0 0 1 0 3.62ZM1228.92 1111.41a1.81 1.81 0 0 1-1.47-.75c-20.43-28.6-62.71-61.31-74.41-67l.53.68c15.94 19.69 24.81 35.22 23 56.37a1.78 1.78 0 0 1-2 1.64 1.81 1.81 0 0 1-1.65-2c1.74-19.93-6.82-34.81-22.17-53.78-2.41-3-3.1-4.6-2.54-6a2.28 2.28 0 0 1 2-1.42h.25c8.22 0 58.32 39 80 69.33a1.81 1.81 0 0 1-.42 2.52 1.86 1.86 0 0 1-1.12.41ZM878 679.23a1.23 1.23 0 0 1-.27 0C839 673.47 810 656.35 796.17 631c-14.22-26.08-12.35-59.32 5.54-98.79a1.83 1.83 0 0 1 2.39-.9 1.8 1.8 0 0 1 .9 2.39c-17.4 38.38-19.3 70.54-5.66 95.57 13.26 24.32 41.28 40.79 78.92 46.36a1.8 1.8 0 0 1-.26 3.59ZM1029.68 617.84a1.8 1.8 0 0 1-.81-3.42 739.85 739.85 0 0 0 74.44-43.22 1.8 1.8 0 0 1 2 3 741.59 741.59 0 0 1-74.84 43.46 1.81 1.81 0 0 1-.79.18ZM1304.34 429.29a4.66 4.66 0 0 1-2.26-.55c-3.21-1.74-3.51-6.7-4-14.91-.75-12.43-1.87-31.22-13.56-52.13a1.81 1.81 0 0 1 3.15-1.77c12.1 21.64 13.25 40.92 14 53.68.35 5.75.67 11.17 2.12 12 .31.17 1.33.37 4.28-1.31 16-9.15 19.57-22.81 19.6-22.95a1.78 1.78 0 0 1 2.19-1.31 1.8 1.8 0 0 1 1.32 2.18c-.16.62-4 15.31-21.32 25.21a12 12 0 0 1-5.52 1.86Z"/><path fill="#ffe9bd" d="M1414.49 593.17a112.91 112.91 0 0 1-11.81-.62 1.81 1.81 0 0 1 .38-3.59c55.2 5.88 99.29-32.87 99.73-33.26a1.81 1.81 0 1 1 2.41 2.69c-.42.37-39.64 34.78-90.71 34.78Z"/><path d="M1616 786.38a1.81 1.81 0 0 1-1.56-.91c-1.09-1.89-26.74-46.68-21.89-81.81a1.83 1.83 0 0 1 2-1.54 1.81 1.81 0 0 1 1.54 2c-4.67 33.88 21.19 79.05 21.45 79.51a1.82 1.82 0 0 1-1.57 2.71ZM1643.64 781.56a1.79 1.79 0 0 1-1.42-.69c-.9-1.16-22.08-28.66-18.43-62.7a1.84 1.84 0 0 1 2-1.61 1.81 1.81 0 0 1 1.6 2c-3.49 32.55 17.47 59.82 17.68 60.09a1.81 1.81 0 0 1-.31 2.54 1.84 1.84 0 0 1-1.12.37ZM155.09 1209.53a1.81 1.81 0 0 1-1.69-2.44c8.86-23.63 26.93-40.13 55.24-50.42a1.8 1.8 0 1 1 1.24 3.39c-27.27 9.91-44.63 25.71-53.1 48.3a1.81 1.81 0 0 1-1.69 1.17ZM1504.35 2530.17c-10.38 0-22.39-11.66-24.42-29.92a1.81 1.81 0 1 1 3.59-.4c1.86 16.79 12.66 27.35 21.58 26.68 8.53-.65 13.41-11.46 12.74-28.21a1.81 1.81 0 0 1 1.73-1.88 1.78 1.78 0 0 1 1.88 1.73c1.14 28.44-12 31.65-16.08 32-.37-.02-.68 0-1.02 0Z" style="mix-blend-mode:multiply" fill="#ebbeb0"/><path fill="#4a5fb3" d="M1582.85 2651.73h-415.33a1.81 1.81 0 1 1 0-3.61h415.33a1.81 1.81 0 0 1 0 3.61Z"/><path fill="#d13b2c" d="M1680.54 442.08 1614 624a5 5 0 0 1-6.37 3 5 5 0 0 1-3-6.37l66.53-181.88a5 5 0 0 1 6.37-3 5 5 0 0 1 3.01 6.33ZM1793.17 545.07 1638 661a5 5 0 0 1-7-1 5 5 0 0 1 1-7l155.17-115.88a5 5 0 0 1 7 1 5 5 0 0 1-1 6.95ZM1853.49 684.61l-193.31 11.75a5 5 0 0 1-5.26-4.66 5 5 0 0 1 4.66-5.25l193.31-11.75a5 5 0 0 1 5.26 4.66 5 5 0 0 1-4.66 5.25Z"/></g></svg>