<svg xmlns="http://www.w3.org/2000/svg" viewBox="-154.101 -273.331 1849.358 2753.532"><g data-name="Layer 2"><g data-name="Layer 1"><path fill="#a54220" d="M919,496.6c-9.62,22.76-8.16,48.62-16.4,71.89-8.66,24.47-27.65,45-34.1,70.07-5,19.38-2,39.83-4,59.73-1.58,16.14-6.36,31.81-8.61,47.87-3.2,22.94-1.2,46.27.82,69.39l6.93,79.69c-3.51-137.14,46-269.66,101.21-395.81,5.16-11.79,39.27-76.26,8.56-71.43C953.39,431.14,925.82,480.47,919,496.6Z"/><path fill="#a54220" d="M932.53,1202.82a52.11,52.11,0,0,0,57.27-56.63c-2.33-25.57-4.64-49.69-4.9-54.17-4.74-79.27-4.72-186.81-.43-257.71,3.39-68.87,121.55-318.1,137.9-350.76,22.47-71.87-126-121.17-159.7-48.38-138.15,298.59-116.17,512.5-75.8,725.49a52.08,52.08,0,0,0,45.66,42.16Z"/><path fill="#eacdc3" d="M1365.67,1308.28c-4,28.18-13.45,55.39-15.9,83.77-3.7,43,8.76,86,6,129-2.43,37.7-16.5,74.44-14,112.11,1.69,25.33,10.86,49.73,10.85,75.13,0,21.09-6.35,41.85-5.57,62.92.76,20.57,8.26,40.11,11.19,60.45,4.86,33.77-3,68.34-.48,102.42,1.42,18.94,6,37.41,8.56,56.21A255.08,255.08,0,0,1,1356,2102.86c4.13-121.92-24.24-241.81-44.88-361.65-9.38-54.5-17.22-110-12.5-165.25,4.6-54,21.05-106.07,28.64-159.68,6.12-43.2,6.44-87.06,6.21-130.72-.18-34-2.66-85.63,21.93-111.66C1373,1206.16,1370.91,1271.64,1365.67,1308.28Z"/><path fill="#eacdc3" d="M1107.46,1514.33l48.59,1c0,.38,0,.77,0,1.15-1.85,37.73-15.35,74.69-12.24,112.31,2.08,25.3,11.63,49.55,12,75,.32,21.09-5.7,42-4.59,63,1.08,20.56,8.88,40,12.12,60.27,5.39,33.69-2,68.38,1.12,102.41,1.71,18.92,6.62,37.31,9.42,56.08a255.16,255.16,0,0,1-8.56,112.67c2.23-122-28-241.41-50.5-360.92-10.23-54.34-18.92-109.71-15.07-165A535.29,535.29,0,0,1,1107.46,1514.33Z"/><polygon fill="#f48f7d" points="1114.03 2117.3 1121.47 2214.35 1064.88 2214.35 1054.25 2114.76 1114.03 2117.3"/><path fill="#eacdc3" d="M1155.67,1753.94c7.4,153.06,10.84,249.54,14.38,318.11,2.76,53.34-37.34,98.19-87.82,98.19-44.19,0-81.52-34.69-87.22-81.07-31.11-252.86-99.76-831.27-100.39-970.75l38.21-4.12c.69-66.06,66.8-94.63,122.86-50.22,49.81,39.46,104,77.16,139,86.45l-5.24,37.49C1167.83,1342.66,1144.49,1522.6,1155.67,1753.94Z"/><path fill="#4a4584" d="M965.67,2232.77a14.59,14.59,0,0,1,9.62-13.48l73.52-26.67a11,11,0,0,1,9.28.91,58.61,58.61,0,0,0,29.05,7.41h29.93a6.69,6.69,0,0,1,6.69,6.7v29.93H965.62S965.67,2232.77,965.67,2232.77Z"/><path fill="#2c2655" d="M1123.76,2241.66a9.08,9.08,0,0,1-9.08,9.08H978.85a13.23,13.23,0,0,1-13.23-13.17h158.14Z"/><polygon fill="#f48f7d" points="1316.81 2126.97 1325 2224.37 1267.8 2219.66 1257.04 2122.34 1316.81 2126.97"/><path fill="#eacdc3" d="M1279.13,2172.93c-39.54-1.38-72.56-33.17-79-76.08-37.6-250-124.29-842.47-129.53-983.68l36.58-2.84c-1.51-66.15,61.06-92.55,116.39-46.18,49.16,41.21,102.41,80.79,136.43,91.28l-3.8,37.38c-15.73,154.18-31.15,316.82-13.9,565.78,10.39,150,17,245.24,23,313.26C1370.12,2127.1,1329.58,2174.7,1279.13,2172.93Z"/><path fill="#4a4584" d="M1196.21,2231.44c.09-6.05,3.21-11.41,7.84-13.48l59.89-26.66a7.51,7.51,0,0,1,7.56.91,41,41,0,0,0,23.67,7.41h24.38c3,0,5.45,3,5.45,6.69v29.93H1196.17S1196.21,2231.44,1196.21,2231.44Z"/><path fill="#2c2655" d="M1325,2240.33c0,5-3.31,9.08-7.4,9.08H1207c-6,0-10.74-5.91-10.78-13.17H1325Z"/><path fill="#fff" d="M1054.09,1249q10.73,13.11,21.61,26l10.92,12.92c3.54,4.4,7.6,8.31,11.41,12.46l-.78-1.71,18.59,183.72,9.29,91.85,2.32,23c.41,3.83.76,7.66,1.1,11.49s1.11,7.62,1.66,11.43c2.36,15.23,36.21,251,38.75,266.24-.55-15.41-33-251.35-33.77-266.74-.23-3.84-.3-7.7-.67-11.53s-.86-7.65-1.22-11.48l-2.33-23-9.29-91.86-18.58-183.71a2.86,2.86,0,0,0-.78-1.7c-3.87-4.09-7.49-8.42-11.63-12.26l-12.13-11.79Q1066.41,1260.63,1054.09,1249Z"/><path fill="#a54220" d="M882.15,1081.09c6.6-42.75,47.5-59.3,31.15-117.58-15-53.39-8.91-110.56,20.31-157.93,41.76-67.7,10-150.45,5.79-226.88-1.76-32.08-2-60,1.3-87.08,6-49.72,36.57-93.57,81.57-117.15,73.37-38.45,187.62-68.11,317.65,10.51,13.23,8,31.43,48.55,36.67,62.44,24.54,65.08-14.42,174-20.36,205-18.4,96.16-9.74,171.86-10.4,258.65-.82,45.85,19.23,147.56,21.73,195.58-2.21,15.61,3.68,41.23-6,51.18H890.63c-1.31-.93-2.54-1.88-3.71-2.87a24.42,24.42,0,0,1-8.43-19C878.74,1117.52,879.36,1099.12,882.15,1081.09Z"/><path fill="#a54220" d="M1309.44,1181.94c-26.11,1.38-56-3.23-86.18-9.72-19.21-4.12-39.16-9.07-55.69-8.06-17.66,1.08-30.21,8.95-49.06,8.19-17.89-.72-39.57-9.19-57.13-9.35-14-.13-24.3,5.06-38.71,4.26-8.26-.46-17.45-2.87-26.24-4.43-40-7.1-65.48,3.37-104.38-4.36-1.59-.31-1.66-2.39-.09-2.49,25.79-1.68,41.29-11.08,58-23.6,19.65-14.72,34-33.73,56.77-45.8s57-16.28,95.29-.94c20.32,8.12,39.8,20.9,59.89,30.88,29.44,14.63,60.29,23.07,86.45,23.66,25.65.57,47.7-6,76.44,1.73,5.84,1.58,11.79,3.76,17.65,5.44,4.32,1.25,13.41,1.59,17.1,3.37,8.89,4.29,5.45,9.9,2.35,13.6C1352,1176.15,1330,1180.85,1309.44,1181.94Z"/><path fill="#772a15" d="M996.43,1161.2a173.16,173.16,0,0,0-26.31-3.1c-8.86-.36-17.72-.11-26.54.16s-17.62.46-26.37,0c-4.37-.22-8.73-.62-13.05-1.2-2.15-.32-4.33-.52-6.47-1l-3.21-.59c-1-.16-2.58-.54-1.84-.25l-1.55-.8h-.46l1.09.34A47.1,47.1,0,0,1,880.09,1143l.36,1.14c.59-23.78.82-48.07,6.11-70.79,5.88-22.53,24.52-40.42,31.17-64.89a72.29,72.29,0,0,0,2.52-18.49A166.16,166.16,0,0,0,919,971.7a351.59,351.59,0,0,1-1.84-35.54,369.1,369.1,0,0,1,6.21-70.82,354.56,354.56,0,0,1,19.93-68.41C953.41,774.84,957.36,750,957.19,726c-.36-48.48-13.91-95-17.79-142.72C941,631.18,953.12,678.38,952.55,726c-.31,23.8-4.85,47.07-14.82,68.85A359.65,359.65,0,0,0,917,864.2a353.91,353.91,0,0,0-6.66,72,357.55,357.55,0,0,0,2.14,36.13,164.41,164.41,0,0,1,1.39,17.54,66,66,0,0,1-2.19,17c-5.61,22.45-24.31,40.58-30.58,65-5.07,24.18-4.62,48.18-4.74,72.15v.63l.36.51a50.94,50.94,0,0,0,12.84,12.52l.51.35h1.05l-1.55-.8a3.73,3.73,0,0,0,2.61,1.46l1.65.26,3.31.54c2.2.4,4.43.57,6.64.85,4.44.46,8.9.7,13.35.79,8.91.18,17.77-.31,26.58-.87C961.27,1159.06,978.94,1158.48,996.43,1161.2Z"/><ellipse cx="1166" cy="392.84" fill="#fff" rx="77.74" ry="52.79" transform="rotate(-2.98 1166.79 393.13)"/><path fill="#f48f7d" d="M1324.54,1065.22a7.32,7.32,0,0,0,.58,10.3l27,24.11a7.29,7.29,0,0,0,9.71-10.87l-27-24.12A7.31,7.31,0,0,0,1324.54,1065.22Z"/><path fill="#f48f7d" d="M1317,1152.77c-6.2-1-12.4-2.57-16.21-6-2.95-2.63-4.19-6.11-5.16-9.54a88,88,0,0,1-3.18-27.33c.35-8.53,3.07-18.58,13.68-23.77,10.26-5,22.31-4.68,32.26-1.4,18.85,6.22,25.52,8.6,35.63,21.42,12.65,16,10.9,31.93-16.33,39.25C1343.72,1149.18,1330.53,1154.88,1317,1152.77Z"/><path fill="#f48f7d" d="M1310.1,1098.26l-52.85,15a6.77,6.77,0,0,1-3.7-13l52.85-15a6.77,6.77,0,1,1,3.7,13Z"/><path fill="#f48f7d" d="M1309.85,1117.39l-52.86,15a6.77,6.77,0,0,1-3.7-13l52.86-15a6.77,6.77,0,1,1,3.7,13Z"/><path fill="#f48f7d" d="M1316.65,1128.73l-52.85,15a6.77,6.77,0,0,1-3.7-13l52.85-15a6.77,6.77,0,1,1,3.7,13Z"/><path fill="#f48f7d" d="M1337.58,1151.2,1303,1160a38.23,38.23,0,0,1-30.88-5.32c-6.51-4.4-11.86-9.22-12.38-11.07l4.3-4.72c-1-3.58,7.51-8.71,11.09-9.73l61.48,4.12A6.8,6.8,0,0,1,1345,1138C1346,1141.53,1341.16,1150.18,1337.58,1151.2Z"/><path fill="#001443" d="M98.83,324c6.86-6.56,15.19-11.47,21.54-18.51,2.49-2.76,6.12-11.36,10.23-20.1,2.23-12.35,5.48-26.54,20.56-45.2,27.47-34,48.11-23,66.29-32.81,17.85-9.63,12-17.34,35-24.27,20.16-6.06,41.45-2.83,57.3,7.72,0,0,9.1,7,12.19,10.75,3.32,4,6.24,8.37,9.28,12.61,5.13,2.09,24,11.33,26.57,24.85,2,10.28-.57,20.34-4.41,28.82a58,58,0,0,1-2.68,6.13c-1.57,3.07-3.6,5.95-5,9.09-4.79,10.81-12.53,17.63-14.35,29a39,39,0,0,1-19.26,28.16c-14,7.76-21.81,12.17-32.74,24.38-8.8,9.82-9.07,24.18-15.58,35.61-6.6,11.59-18.75,18.78-30.52,24.06s-24.17,9.54-34.35,18.07c-2.07,1.73-4,3.63-5.91,5.57A58.59,58.59,0,0,1,183.09,458c-.62.57-1.24,1.14-1.88,1.69a51.6,51.6,0,0,1-35.93,12.26,62.65,62.65,0,0,1-6.28-.06c-19.94-1.19-31.16-15.51-35.82-33-3.22-12.07-7.64-23.69-14.93-33.4-5.38-7.16-10.26-14.44-10.66-23.81C76.73,361.55,83.07,339.09,98.83,324Z"/><path fill="#001443" d="M69.65,396.56A2.69,2.69,0,0,0,71,392c-8.7-8.37-13.6-20.83-13.45-34.19s5.34-25.7,14.24-33.86c4.46-4.1,9.88-7.44,15.12-10.68,7.45-4.59,15.16-9.35,20.73-16.52,7-9.07,9.46-20.33,11.79-31.22,1-4.6,2-9.35,3.35-13.8,5.1-16.79,15.87-29.52,28.83-34.06,5.1-1.79,10.5-2.4,16.22-3.05,6.67-.76,13.56-1.54,20-4.35,4.71-2.06,8.81-5.09,12.78-8,4.13-3,8-5.9,12.47-7.71,10.43-4.23,22.22-2.11,35.44.87a2.68,2.68,0,0,0,1.18-5.23c-11.5-2.6-25.81-5.83-38.64-.6-5.06,2.05-9.41,5.26-13.63,8.35-3.9,2.88-7.59,5.59-11.75,7.42-5.66,2.48-11.86,3.18-18.42,3.93-5.76.66-11.72,1.34-17.38,3.32-14.57,5.1-26.6,19.15-32.19,37.56-1.41,4.67-2.46,9.53-3.46,14.24-2.31,10.77-4.49,20.95-10.78,29.05-5,6.41-12,10.7-19.32,15.25C78.67,312.05,73,315.54,68.19,320c-10,9.16-15.8,22.92-16,37.75s5.33,28.73,15.1,38.12A2.68,2.68,0,0,0,69.65,396.56Z"/><polygon fill="#f48f7d" points="262.76 1408.03 158.79 2225.61 116.57 2230.27 97.82 1436.92 262.76 1408.03"/><path fill="#2c2655" d="M112.54,2231.13c.09,5.07,3.78,9.13,8.25,9l120.92-2c6.5-.11,11.64-6.17,11.55-13.52L112.48,2227Z"/><path fill="#91c5de" d="M253.14,2219.77c-.2-6.12-3.7-11.49-8.8-13.49l-27.9-10.17c-9.85,6.35-31.54,11-56.8,11.43-19,.32-36-1.81-47.58-5.44l.41,24.89,140.79-2.37S253.14,2219.77,253.14,2219.77Z"/><path fill="#f48f7d" d="M216.44,2196.11,158,2176.42c-7.8,6.72-2.51,12.8-13.59,13l-26.64.45c-3.29.06-5.91,3.13-5.85,6.87l.1,5.38c11.57,3.63,28.6,5.76,47.58,5.44C184.9,2207.12,206.59,2202.46,216.44,2196.11Z"/><polygon fill="#f48f7d" points="353.07 2093.11 342.11 2200.04 389.58 2203.29 406.98 2104.66 353.07 2093.11"/><path fill="#2c2655" d="M340.59,2233.62c.07,4.89,3.62,8.8,7.92,8.74L465,2240.62c6.27-.1,11.22-5.93,11.16-13l-135.62,2Z"/><path fill="#91c5de" d="M476,2222.94c-.18-5.9-3.54-11.07-8.45-13l-26.85-9.85c-9.5,6.1-30.4,10.55-54.74,10.91-18.27.27-34.68-1.82-45.82-5.33l.36,24,135.62-2S476,2222.94,476,2222.94Z"/><path fill="#f48f7d" d="M440.73,2200.08l-53.57-19.33c-7.53,6.45-5.09,12.58-15.76,12.74l-25.67.38c-3.17.05-5.69,3-5.64,6.61l.08,5.18c11.14,3.51,27.55,5.6,45.82,5.33C410.33,2210.63,431.23,2206.18,440.73,2200.08Z"/><path fill="#f48f7d" d="M506.54,1496.67c-54.49,24.51-96.11,24.88-155.54,32.11,54,169.09,23.55,241,0,581.57-2,81.89,31.75,118.34,44.53,59.48C500.07,1688,535.08,1695.24,506.54,1496.67Z"/><path fill="#4398ba" d="M180.29,1165.36,75.44,1371.83l12,222.27c-.2,13.14,10.38,33,27.27,36.58,54.34,11.52,204.29,36,383.59-7.19A24.26,24.26,0,0,0,516.88,1601l6.73-433.51Z"/><path fill="#88dce5" d="M667,749.67l-17.48-34.42a472.45,472.45,0,0,1-26.84-64.13L542.54,472.33C531,442.89,519.88,458,490.21,468.91l-31.06,11.42c-27.28,10-42.36,38.63-36.54,67.12,1.84,9.8-3.21,19-.76,28.68,2.91,11.51,15.16,19.55,22.89,29.51,21.13,27.24,7.22,67,32.16,91.51,4.6,4.51,10.2,8.08,14.63,12.73,13.28,13.92,13.67,34.66,27.11,48.46,5.27,5.42,12.21,9.36,17,15.11,6.29,7.53,8,17,12.15,25.58,8.56,17.84,28.81,31.2,48.86,33.08,1.14.33,2.26.71,3.41,1a60.81,60.81,0,0,0,40.1-4.46A58.12,58.12,0,0,0,667,749.67Zm-170.22-92.8c-.81-1.87-1.55-3.77-2.2-5.68Z"/><path fill="#f48f7d" d="M672,442a7,7,0,0,1,8.48,5l8.63,33.47A7,7,0,1,1,675.59,484L667,450.52A7,7,0,0,1,672,442Z"/><path fill="#f48f7d" d="M749.52,474.05c1.89-5.69,3.26-11.65,2-16.38-.95-3.65-3.35-6.23-5.84-8.55a83.55,83.55,0,0,0-21.79-14.68c-7.39-3.45-17.11-5.54-26.17,1.19-8.75,6.5-13.75,16.87-15.32,26.75-3,18.72-3.89,25.43,2.55,39.61,8.07,17.77,22.32,23.25,40.46,3.36C734.79,495.11,745.4,486.42,749.52,474.05Z"/><path fill="#f48f7d" d="M706.32,444.27,742.23,406a6.47,6.47,0,1,0-9.43-8.85l-35.91,38.26a6.47,6.47,0,0,0,9.43,8.85Z"/><path fill="#f48f7d" d="M722.66,452.44l35.91-38.26a6.47,6.47,0,0,0-9.43-8.85l-35.91,38.26a6.47,6.47,0,0,0,9.43,8.85Z"/><path fill="#f48f7d" d="M729.3,463.18l35.91-38.26a6.46,6.46,0,0,0-9.43-8.84l-35.9,38.26a6.46,6.46,0,1,0,9.42,8.84Z"/><path fill="#f48f7d" d="M739.19,490.78l22.63-25.48a36.49,36.49,0,0,0,9-28.53c-.88-7.45-2.62-14.1-4-15.36L761,423c-2.59-2.43-10.68,2.56-13.11,5.15l-23.45,54a6.47,6.47,0,0,0,.29,9.14C727.31,493.67,736.75,493.37,739.19,490.78Z"/><path fill="#f48f7d" d="M725.19,472.91c7,9.45,1.45,20.94-1.67,33.22L662.12,782a40.57,40.57,0,1,1-78.65-20l90.07-273.48c5.51-21.72,7.3-36.38,29-30.87A40.4,40.4,0,0,1,725.19,472.91Z"/><path fill="#fce6e0" d="M428.19,355.17c-45.66-20.05-102.05-29.67-166.11-10.1l-6.42,842.06,146.59-6Z"/><path fill="#88dce5" d="M92,1380.26H238.21c8.53,0,16-6.63,16.1-15.16,0-.17,7.77-1020,7.77-1020a277,277,0,0,0-29,10.69c-22.22,9.61-45.24,22.74-69,40.25-13.77,10.17-84.8,34.49-109.14,97.44-18,46.63-16.82,67.72-17.3,81.08l34-38.82c-.12,6.47,0,13,.54,19.57.42,15.35-19.83,59.66-20.06,64.93-2.34,53.08,17,67.57,13.24,121.45-3.12,45.26-11.58,86.54-13,131.89-1.69,54.63,26.44,102.58,30.45,156.8,3,39.94-7.34,79.7-16,118.61-14.68,66-24.6,138-11,202.16A37,37,0,0,0,92,1380.26Z"/><path fill="#88dce5" d="M552.56,1283.67c-2.26-49.14-34.13-71.05-24.27-129.57,14-83,11.53-166.52-8.06-243.73C499.59,829,533,733.6,543.32,644.92c4.79-41.25,7.65-77.09,6.86-111.87-1.42-62.84-27.45-118-69.31-147.8a306,306,0,0,0-35.75-22c-5.46-2.85-11.12-5.54-16.93-8.09L396.26,1372.05c-.4,12.78,11.1,21.85,23.72,18.64,5-1.28,10.6-2.82,17.48-4.09,37.05-6.86,60.76,4.85,98.09-4.54a1.66,1.66,0,0,0,1-.81H537a62,62,0,0,0,9.46-10.1,21,21,0,0,0,4.12-11.19C552.28,1334.3,553.71,1308.7,552.56,1283.67Z"/><path fill="#4398ba" d="M432.36,1387.6a138,138,0,0,1,26.2-4c8.76-.47,17.46-.14,26.12.2a234.36,234.36,0,0,0,26,0,126.81,126.81,0,0,0,13-1.54c2.15-.41,4.31-.67,6.46-1.24l3.22-.75c1-.21,2.59-.7,1.83-.33l1.6-1h.46l-1.1.44a62.38,62.38,0,0,0,12.56-15.18l-.46,1.47c1.67-30.56,3.76-61.79.7-91-3.65-29-20.31-52-24.54-83.39a118.32,118.32,0,0,1-.73-23.77c.54-8,1.89-16,3-23.42,2.28-15.18,4.08-30.43,5.18-45.67a610.79,610.79,0,0,0,.6-91,542,542,0,0,0-13.14-87.92c-7.9-28.38-9.44-60.31-7-91.17,5-62.3,22.7-122.06,31.05-183.4-6.16,61.56-22.53,122.22-26.48,183.37-2,30.58.31,60.49,8.07,88.48a551.69,551.69,0,0,1,13.86,89.17,586.06,586.06,0,0,1-.28,92.54c-1.21,15.51-3.12,31-5.53,46.42-1.22,7.83-2.5,15.22-3,22.55a108.29,108.29,0,0,0,.55,21.86c3.39,28.85,20.08,52.14,23.94,83.57,2.7,31.07,0,61.92-2.18,92.71l0,.82-.41.65A66.79,66.79,0,0,1,538,1383.15l-.54.45h-1l1.6-1a3.81,3.81,0,0,1-2.7,1.87l-1.65.35-3.31.68c-2.21.52-4.42.73-6.62,1.09a120.61,120.61,0,0,1-13.22,1,235.39,235.39,0,0,1-26.09-1.12C467.19,1384.86,449.84,1384.11,432.36,1387.6Z"/><path fill="#4398ba" d="M262.08,345.07c-6.22,15.11-12.81,30-19.49,44.91s-13.53,29.67-20.43,44.44l.28-2.49q5.66,21.69,10.88,43.5t10,43.7q4.8,21.9,9.06,43.92c2.84,14.69,5.47,29.42,7.67,44.26-4.68-14.25-8.92-28.61-12.95-43s-7.88-28.85-11.56-43.34S228.36,492,225,477.4s-6.64-29.15-9.74-43.77l-.3-1.38.58-1.11c7.52-14.46,15.06-28.92,22.8-43.27S253.88,359.2,262.08,345.07Z"/><path fill="#4398ba" d="M428.19,355.17c5.89,10.47,11.39,21.11,16.81,31.8s10.64,21.44,15.84,32.23l.47,1-.22,1.25q-4,22.77-8.51,45.45t-9.36,45.28q-4.89,22.59-10.32,45.08c-3.62,15-7.46,30-11.73,44.81,1.77-15.36,4-30.64,6.41-45.87s5-30.43,7.81-45.59,5.71-30.29,8.79-45.39S450.46,435,453.82,420l.25,2.23c-4.56-11.06-9.09-22.13-13.42-33.3S432.06,366.54,428.19,355.17Z"/><path fill="#001443" d="M440.19,706a4.33,4.33,0,0,1-4.28-3.71c-2.91-19.85-3.54-42.64-1.82-65.9,5.39-73,31.64-130.15,59.76-130.15,6.69,0,12.89,3,18.43,9,17.85,19.21,26.77,67,22.73,121.79a323.06,323.06,0,0,1-11.26,64.89,4.33,4.33,0,1,1-8.32-2.41,314.93,314.93,0,0,0,10.94-63.11c3.81-51.68-4.4-98-20.44-115.26-3.83-4.13-7.89-6.22-12.08-6.22-20.33,0-45.73,49.07-51.12,122.11-1.67,22.65-1.06,44.78,1.76,64a4.33,4.33,0,0,1-3.66,4.91A3.52,3.52,0,0,1,440.19,706Z"/><path fill="#001443" d="M493.86,514.9a4.38,4.38,0,0,1-4.34-4.49c0-.83,2.32-83.73-47.74-144.39a4.33,4.33,0,1,1,6.68-5.52c52.2,63.26,49.85,146.7,49.72,150.22A4.33,4.33,0,0,1,493.86,514.9Z"/><path fill="#001443" d="M233,611.64a4.33,4.33,0,0,1-3.85-2.32C228.54,608.08,165,484.13,213,361.68a4.33,4.33,0,1,1,8.06,3.16C174.44,483.65,236.23,604.1,236.86,605.3a4.33,4.33,0,0,1-3.83,6.34Z"/><path fill="#001443" d="M270.34,636.83c-1.21,16.45-15.54,29.79-32,29.79a27.3,27.3,0,0,1-27.6-29.79c1.22-16.46,15.54-29.8,32-29.8A27.29,27.29,0,0,1,270.34,636.83Z"/><path fill="#001443" d="M448.43,709.1h-8.31a4.58,4.58,0,0,1-4.62-5,5.48,5.48,0,0,1,5.36-5h8.31a4.58,4.58,0,0,1,4.62,5A5.48,5.48,0,0,1,448.43,709.1Z"/><path fill="#001443" d="M518.86,709.1h-8.31a4.57,4.57,0,0,1-4.62-5,5.47,5.47,0,0,1,5.35-5h8.31a4.58,4.58,0,0,1,4.62,5A5.47,5.47,0,0,1,518.86,709.1Z"/><path fill="#f48f7d" d="M114.32,801.72c-15.59-.39,14.22-54.16,20.2-69.62l22.2-55.94-118.4,5.27-14.55,146C20,863,38.25,886.38,74.23,884.68l53.94-82.23Z"/><polygon fill="#f48f7d" points="372.17 818.6 117.61 801.75 74.23 884.68 372.17 872.29 372.17 818.6"/><path fill="#88dce5" d="M50.4,505.23,200.05,612.34l-26.59,115.3c-5,33.05-30.42,57.78-61,59.39l-20.63,1.08c-47.68,2.52-85.72-1.9-91.14-53.83Z"/><path fill="#4398ba" d="M210.54,566.6c-2.55,13.73-5.29,27.43-8,41.12l-8.31,41.06-8.63,41-8.83,40.94.06-.3c-2.29,17.57-12.3,33.62-26,44.45a78,78,0,0,1-23,12.59,73.71,73.71,0,0,1-12.8,3.18c-2.18.34-4.42.55-6.58.69l-6.22.36c-16.45,1-33.38,2.27-50.49,0-8.52-1.16-17.19-3.34-25.14-7.63a47.74,47.74,0,0,1-19-18.87c-8.9-15.59-9.27-34.92-4.72-50.91L13.75,665.7Q19.26,641.42,25,617.18c3.82-16.16,7.58-32.33,11.62-48.44-2.71,16.38-5.69,32.71-8.61,49s-5.9,32.65-9,49L9.71,715.59a112.64,112.64,0,0,0-2,12,64.07,64.07,0,0,0,0,11.75,53,53,0,0,0,6.83,22,40.38,40.38,0,0,0,16.07,15.49c6.71,3.58,14.4,5.53,22.29,6.55,15.89,2,32.28.6,48.9-.21l6.21-.33c2-.11,3.87-.28,5.8-.56a65.35,65.35,0,0,0,11.32-2.76,69.47,69.47,0,0,0,20.55-11.13c12.39-9.53,21.44-23.51,23.72-39,.06-.31,10-41,10-41l10.11-40.65,10.42-40.58C203.34,593.59,206.85,580.07,210.54,566.6Z"/><path fill="#f48f7d" d="M470.42,813.89l-53.07-5.63a6.24,6.24,0,0,0-2.33.22,34.67,34.67,0,0,0-4-.6c3.27-2.61,4.61-6.68,2.8-9.69-2-3.34-7-4-11.13-1.56L365.47,819c-4.11,2.47-5.84,7.23-3.83,10.57a5.59,5.59,0,0,0,.48.61,58.81,58.81,0,0,0-6.06,9.3c-9.46,17.44-5.16,32.37,22.11,34.87,6.88.62,13.64,1.72,20.23,2.19L433,879.26a37.19,37.19,0,0,0,28.68-10.2c5.5-5.29,9.82-10.78,10-12.64a6.9,6.9,0,0,0,3.36-5,6.55,6.55,0,0,0-3.06-6.19l.46.05a6.57,6.57,0,0,0,1.39-13.07l-39.5-4.2a36.46,36.46,0,0,0-1.57-4.85L469,827a6.57,6.57,0,0,0,1.39-13.07Z"/><path fill="#4398ba" d="M85.91,1093.69c12.71-1.79,25.42-2.73,38.13-3.37s25.41-.88,38.12-1c12.71.07,25.42.26,38.12,1s25.42,1.57,38.13,3.38c-12.71,1.8-25.42,2.75-38.13,3.38s-25.41.87-38.12,1c-12.71-.09-25.42-.27-38.12-1S98.62,1095.48,85.91,1093.69Z"/><path fill="#001443" d="M426,272.16a2.68,2.68,0,0,0,2.21-2.55c.24-7.69,5.87-15,17.2-22.31l2.91-1.86c8.47-5.38,17.23-10.93,21.41-20.34,2.58-5.81,2.87-12.06,3.15-18.09a67.93,67.93,0,0,1,1.21-11.74c1.9-8.35,7-15.45,12.34-23,5.47-7.68,11.13-15.61,13.23-25.09a37.15,37.15,0,0,0-5.87-29.05c-1.3-1.84-2.75-3.53-4.16-5.17-2.34-2.73-4.55-5.3-5.91-8.29-1.7-3.73-2.18-8.32-2.63-12.77-.76-7.29-1.53-14.83-7.54-19.81a2.68,2.68,0,0,0-3.42,4.13c4.32,3.58,4.95,9.72,5.62,16.23.5,4.88,1,9.92,3.09,14.45,1.68,3.67,4.24,6.66,6.72,9.55,1.39,1.62,2.7,3.15,3.86,4.78a31.72,31.72,0,0,1,5,24.79c-1.86,8.42-7,15.57-12.36,23.13s-11.06,15.5-13.2,24.91a72.13,72.13,0,0,0-1.34,12.67c-.27,5.8-.52,11.27-2.69,16.16-3.52,7.93-11.58,13.05-19.38,18l-2.95,1.89c-12.92,8.34-19.35,17.06-19.65,26.64a2.67,2.67,0,0,0,2.59,2.76A2.59,2.59,0,0,0,426,272.16Z"/><path fill="#001443" d="M304.08,235.62c-7.79-9.91-16.16-19.55-24.25-29.22-4.43-5.29-8.93-10.53-13.22-15.94-2.3-2.91-4.4-6-6.75-8.89-2.74-4.8-5.47-9.57-7.78-14.61-1.37-3-5.71-18.17-3.27-6.87,2.56,11.84-1-4.42-1.56-7.13-1.12-5.28-1.78-10.56-2.51-15.89,0-.14,0-.25-.05-.38,0-.55,0-1.09,0-1.64q.18-8,1.11-16c.48-4.15,1.55-8.35,2.18-12.51.36-1.34.72-2.67,1.13-4a240.56,240.56,0,0,1,11-27.72c1-1.75,2-3.52,3.09-5.25,2.51-4.08,5.28-8,7.91-12,19-29.06,62.41-38.51,68.72-39.43,5.42-.8,10.85-1.24,16.29-1.76l1.76,0a255.88,255.88,0,0,1,31.05,1.92c1.41.18,2.88.47,4.36.78.12.55,2.67,1.49,8.59,1.51.93.26,1.87.52,2.79.81,9.07,2.84,17.57,6.65,26.25,10.4,1.56.95,3.13,1.87,4.68,2.85A155.38,155.38,0,0,1,448.85,44l.23.18c.52.6,1,1.19,1.51,1.84q.17.72.36,1.44c5.38,19.71,31.06,33.25,26.42,53.38-1.08,4.72-3.88,9.47-2.55,14.07s6.56,7.32,8.42,11.81c3.5,8.43-5.88,17.56-7.43,26.22.08.85.19,5.68.47,6.32-18.17,64.87-38.81,109-80.85,123.15C360.6,294.19,316.81,251.82,304.08,235.62Z"/><path fill="#001443" d="M479.56,79.61c-1.29-6.21-4.84-11.71-8.33-17.06l-12.66-19.4c-3.69-5.65-7.49-11.42-13-15.53-9.37-7-22.11-8.11-34.08-8.41s-37.45-5.83-49.31-5.12C340.64,15.37,318.44,25,298.79,33.93s-22.94,23.53-29.67,43.36c-4.23,12.44-3.15,28,7.61,35.8,4.47,3.23,10.06,4.71,15.57,5.74a124.19,124.19,0,0,0,52-1.42c14.32-3.48,28-9.51,42.61-11.54,23.4-3.24,48,4.72,64.42,20.83,4.1,4,8.14,8.77,13.91,9.84,14.65,2.71,8.78-15.12,9.46-22C475.88,102.81,482,91.53,479.56,79.61Z"/><path fill="#f48f7d" d="M370.43,205l-60.29-.53c-.28,0-.55,0-.82,0-5.06.54-9.06,6.2-9.12,12.9L299,353.08a40,40,0,0,0,39.78,40.32,40.81,40.81,0,0,0,4.43-.22A39.94,39.94,0,0,0,379,353.77l1.16-135.65a15.2,15.2,0,0,0-3.14-9.59A8.65,8.65,0,0,0,370.43,205Z"/><path fill="#f48f7d" d="M433.54,70.08l-1.12.6C420.87,77,321.83,131.79,307.52,173.62L307.05,205c-.71,47.42,33.42,82,75.78,82.64,30.27.45,49.87-13.81,63.86-41.22,9.74-19.09,14.43-40.36,14.72-61.79l1.07-79.72C462.89,77.55,451.18,86.17,433.54,70.08Z"/><path fill="#001443" d="M380.9,164.19c0,4.82-2.63,8.7-5.76,8.67s-5.63-4-5.58-8.78,2.62-8.71,5.76-8.68S381,159.37,380.9,164.19Z"/><polygon fill="#001443" points="375.32 155.41 384.97 155.5 378.96 161.39 375.32 155.41"/><path fill="#001443" d="M454.87,164.94c-.05,4.82-2.63,8.7-5.77,8.67s-5.63-4-5.58-8.79,2.63-8.7,5.76-8.67S454.91,160.12,454.87,164.94Z"/><polygon fill="#001443" points="449.28 156.15 458.93 156.25 452.92 162.14 449.28 156.15"/><path fill="#f48f7d" d="M302.77,174c-11.85-.18-21.63,11.26-21.85,25.54s9.22,26,21.08,26.17,21.63-11.25,21.84-25.53S314.62,174.19,302.77,174Z"/><path fill="#e56e5e" d="M413.65,167c5.87,7.51,9.49,15.8,12.57,24.28l2,6.46.43,1.64a7.89,7.89,0,0,1,.29,3.07,6.72,6.72,0,0,1-3.31,5.14c-2.33,1.12-3,.77-4.21,1l-3.43.3a53.23,53.23,0,0,1-7,0,49.45,49.45,0,0,1,6-3.68l3.08-1.54c.89-.47,2.57-1,2.18-1.14a1.51,1.51,0,0,0-.11-.56c-.05-.11-.07,0-.19-.25l-.69-1.55-2.41-6.32C416,185.25,413.69,176.51,413.65,167Z"/><path fill="#e56e5e" d="M408.28,283.2a42,42,0,0,1-13.49,8,46.15,46.15,0,0,1-15.92-.93c-10.11-2.16-19.45-6.17-28.33-10.95a129,129,0,0,1-24.66-17.42,135.44,135.44,0,0,1-10.6-10.83,88.22,88.22,0,0,1-5.85-14.28c2.05,1.59,4,3.17,5.84,4.79L321.2,246a131.68,131.68,0,0,0,9.92,10.13,120.81,120.81,0,0,0,23.17,16.37c8.31,4.48,17.16,8.24,26.2,10.16,4.56.91,8.9,1.51,13.21.78A75.44,75.44,0,0,0,408.28,283.2Z"/><path fill="#001443" d="M355.58,137.47a2.44,2.44,0,0,1-1-4.44c.88-.59,21.62-14.15,40.28-2.93a2.44,2.44,0,0,1-2.52,4.19c-16-9.64-34.86,2.67-35.05,2.8A2.4,2.4,0,0,1,355.58,137.47Z"/><path fill="#001443" d="M466.7,134.26c-14.09-4.89-28.81,1-29.43,1.21a2.44,2.44,0,0,0-1.33,3.18,2.41,2.41,0,0,0,1.55,1.41,2.44,2.44,0,0,0,1.64-.07c.12-.06,13.51-5.42,26-1.12a2.35,2.35,0,0,0,3.11-1.51A2.44,2.44,0,0,0,466.7,134.26Z"/><path fill="#fff" d="M391.11,224.11c-.16,4.93,5.66,9.65,13.49,10.69s14.61-2,15.79-6.72Z"/><path fill="#f9d5cd" d="M299.27,335.54,336,393l-29.09,22S265.31,365.32,299.27,335.54Z"/><path fill="#f9d5cd" d="M379.73,338.05l-44.35,54.27L358.7,413.1S406.23,366.18,379.73,338.05Z"/><path fill="#a54220" d="M1343.85,1138.6c-46.77,0-41.19-31.39-19.31-73.38l92.72-249.58s-3.27-17.6-6.45-24.24L1258.34,473.47a62.85,62.85,0,0,1,29.49-83.83c31.28-15,51.73-17.66,83.83,29.49,0,0,77.69,107.78,158.92,331.37,12.28,33.82,15.67,69.7.3,102.23-.32.68-122.61,227-145.56,269.41a37.44,37.44,0,0,1-10.8,12.44C1363.62,1142.57,1363.05,1138.6,1343.85,1138.6Z"/><path fill="#a54220" d="M1357.32,715.72c9.32,12.86,20.07,25.22,24.9,40.35,5.3,16.58,3.11,35.42,11.52,50.67,2.16,3.92,5,7.48,6.8,11.58,7.46,16.77-3.46,35.38-11.81,51.73a143.38,143.38,0,0,0-13.29,36.53c-1.6,7.87-2.37,15.91-4.52,23.64-3.3,11.86-9.74,22.59-14.15,34.08-6.12,16-8.2,33.94-2.83,50.15l30.13-64.92c17.27-37.21,34.63-74.67,44.87-114.4,4.51-17.5,7.61-35.77,4.85-53.63s-11.35-34.54-20.41-50.35q-14.94-26.1-32.09-50.85c-7.42-10.71-16-21.86-28.51-25.59C1318.65,644.53,1350.68,706.56,1357.32,715.72Z"/><path fill="#772a15" d="M1351.91,982.15c-6,19.7-12.57,39.2-19.17,58.68l-10.23,29.11c-3.36,9.72-6.94,19.36-10.5,29-2.59,6.2-3.7,13.41-1.91,19.71a22.15,22.15,0,0,0,4.63,8.58c1.1,1.23,2.5,2.2,3.73,3.33a38,38,0,0,0,4.38,2.6,21.73,21.73,0,0,0,4.76,2,33.77,33.77,0,0,0,5,1.57l5.16,1,2.58.55,2.64.25c3.52.24,7,.9,10.6.8l10.7.13-10.69.84c-3.57.37-7.16,0-10.76,0s-7.17-.81-10.77-1.23a38.12,38.12,0,0,1-5.28-1.41,23.85,23.85,0,0,1-5.18-1.89c-6.76-2.77-13-8.52-15-16.09-2.16-7.49-1.08-15.19,1.74-22.28,3.34-9.54,6.73-19.25,10.34-28.88l10.67-29C1336.61,1020.36,1344,1001.15,1351.91,982.15Z"/><circle cx="1140.15" cy="105.9" r="105.9" fill="#f48f7d" transform="rotate(-45 1140.144 105.897)"/><path fill="#f48f7d" d="M1021.33,188.05c.13,1,.19,2.06.38,3.09a31.71,31.71,0,0,0,1.86,6.33,36.15,36.15,0,0,0,7,10.93,48.76,48.76,0,0,0,17,11.42,62,62,0,0,0,7.18,1.41c28.61,3.5,56.58-1.75,79.13-7.45,12.05-4.34,16-8.55,22.56-16.86,3.18-4,6.87-11.62,9.44-16.24q1.05-3.27,2.18-6.48c2.75-7.76,5.78-15.59,6.09-23.82a40,40,0,0,0-1.25-11.28,50.75,50.75,0,0,0-6.33-8.52c-11.26-11.76-28.83-14.3-45-16.18L1075,109c-10.83-1.25-21.85-2.56-31.79-7a64.38,64.38,0,0,1-18.6-13.23c-1.08-1.1-2.47,1.75-3.89.27-1.24,3.54-1.85,4.16-1.65,11.21l.83,32.36c14.44-1.23,27,6.15,27.61,6.48a2.4,2.4,0,0,1-1.51,4.45,2.48,2.48,0,0,1-1-.32c-.12-.07-12-7-25-5.81l0,1.77.79,30.5.45,17.32C1021.28,187.34,1021.32,187.69,1021.33,188.05Zm93.3-15.31c-3.4.08-6.25-4.1-6.36-9.32s2.54-9.53,5.93-9.6,6.25,4.09,6.37,9.32S1118,172.66,1114.63,172.74Zm-56.09,30,.5-1.77,2.2-7c3.18-9.26,6.68-18.4,11.57-27.08-1.3,9.88-4,19.29-7,28.6l-2.45,6.91-.66,1.72a2.32,2.32,0,0,0-.22.93,2.4,2.4,0,0,0,.71,1.68c.22.34,1.81.72,2.86,1.17l3.44,1.33c2.27.95,4.55,1.89,6.78,3-2.5-.11-5-.44-7.39-.75l-3.65-.57c-1.26-.31-2.2-.13-4.1-1.08a5.9,5.9,0,0,1-2.84-4.46A6.55,6.55,0,0,1,1058.54,202.71ZM1034,155.63c3.4-.08,6.25,4.09,6.36,9.32s-2.54,9.52-5.93,9.6-6.25-4.1-6.37-9.32S1030.63,155.7,1034,155.63Z"/><path fill="#001443" d="M1114.2,153.82c-3.39.07-6,4.37-5.93,9.6s3,9.4,6.36,9.32,6-4.38,5.94-9.6S1117.6,153.74,1114.2,153.82Z"/><path fill="#001443" d="M1034.46,174.55c3.39-.08,6-4.38,5.93-9.6s-3-9.4-6.36-9.32-6,4.37-5.94,9.6S1031.06,174.63,1034.46,174.55Z"/><path fill="#f48f7d" d="M1191.46,224.59c13.7-.37,24.37-16.36,23.84-35.71-.45-16.33-8.75-29.8-19.57-33.38-1.89,5.91-4,11.76-5.26,17.84-2.39,11.71-1.35,23.8-1.6,35.75-.11,5.37-.52,10.8-2.22,15.88-.1.59-.19,1.18-.3,1.76a16.83,16.83,0,0,1-.51,4.84,26.28,26.28,0,0,1-2,4.68c-.86,2.62-1.86,5.19-3,7.72-.71,4.73.68,9.76-.89,14.29s-5.62,7.49-7.88,11.6c-1.92,3.49-2.47,7.62-4.54,11-3.12,5.16-9.08,7.73-13.7,11.61-8,6.76-13.07,18.26-23.38,20.34-4.09.83-8.31-.07-12.49-.16a63.21,63.21,0,0,0-11.45,1.13l11.09,63.56a49,49,0,1,0,96.6-16.85l-16.37-93.85-7.35-42.11C1190.84,224.56,1191.15,224.6,1191.46,224.59Z"/><path fill="#e56e5e" d="M1061.12,209.84c1.9.95,2.84.77,4.1,1.08l3.65.57c2.44.31,4.89.64,7.39.75-2.23-1.14-4.51-2.08-6.78-3l-3.44-1.33c-1-.45-2.64-.83-2.86-1.17a2.4,2.4,0,0,1-.71-1.68,2.32,2.32,0,0,1,.22-.93l.66-1.72,2.45-6.91c3-9.31,5.71-18.72,7-28.6-4.89,8.68-8.39,17.82-11.57,27.08l-2.2,7-.5,1.77a6.55,6.55,0,0,0-.26,2.67A5.9,5.9,0,0,0,1061.12,209.84Z"/><path fill="#fbe2dc" d="M1095,145.37a2.37,2.37,0,0,0,1.52-.34c17.35-10.74,38.1,2.43,38.3,2.56a2.4,2.4,0,0,0,2.62-4c-1-.61-23.48-15-43.44-2.62a2.4,2.4,0,0,0,1,4.43Z"/><path fill="#fbe2dc" d="M1267.07,109.76c-5.15-12.3-16-21.42-26.66-28.78-19.2-13.22-41.24-21.56-60.82-34.15C1138.13,20.17,1078.22-26,1032.81,18.67c-2.2,2.17-17.65,14.95-21.56,26.75a39.84,39.84,0,0,0-2.18,8.19c-3.07,14.89-2.15,31.16-2.52,48.46-.35,16.05,5.48,19.84,10.85,30.84-.37.05-.74.07-1.11.14a2.4,2.4,0,1,0,.88,4.72c.75-.14,1.5-.22,2.24-.3.21.54.42,1.12.62,1.69l0-1.77c13-1.21,24.89,5.74,25,5.81a2.48,2.48,0,0,0,1,.32,2.4,2.4,0,0,0,1.51-4.45c-.58-.33-13.17-7.71-27.61-6.48l-.83-32.36c-.2-7,.41-11.85,1.65-15.39,1.42,1.48,2.81,2.81,3.89,3.91a64.38,64.38,0,0,0,18.6,13.23c9.94,4.46,21,5.77,31.79,7l46.59,5.4c16.18,1.88,33.75,4.42,45,16.18a50.75,50.75,0,0,1,6.33,8.52,40,40,0,0,1,1.25,11.28c-.31,8.23-3.34,16.06-6.09,23.82q-1.12,3.21-2.18,6.48c-2.57,4.62-6.26,12.19-9.44,16.24-6.53,8.31-10.51,12.52-22.56,16.86-22.55,5.7-50.52,10.95-79.13,7.45a62,62,0,0,1-7.18-1.41,48.76,48.76,0,0,1-17-11.42,36.15,36.15,0,0,1-7-10.93,31.71,31.71,0,0,1-1.86-6.33c-.19-1-.25-2.07-.38-3.09,0-.36-.05-.71-.06-1.07l-.45-17.32a45,45,0,0,0-1,4.77c-1.57,6-4.34,11.9-3.85,18.23.41,5.36,3.18,10.38,3.23,15.76,0,4,2.1,8.36,2.57,12.34.59,5.13.77,9.05,1.6,14.14.49,3,0,6.28,1.27,9,1,2,2.81,3.55,4,5.38a15.65,15.65,0,0,0,1.2,7.33c2.35,4.83,8.52,7.3,9.91,12.5a24.9,24.9,0,0,1,.36,5.67,24.57,24.57,0,0,0,7.8,16.51,37.3,37.3,0,0,0,16.31,8.76c3.7,1,7.63,1.61,10.81,3.76,3,2,5,5.14,7.84,7.31,4.77,3.65,11.24,4.13,17.21,3.52,2.15-.22,4.29-.55,6.42-.89a63.21,63.21,0,0,1,11.45-1.13c4.18.09,8.4,1,12.49.16,10.31-2.08,15.34-13.58,23.38-20.34,4.62-3.88,10.58-6.45,13.7-11.61,2.07-3.4,2.62-7.53,4.54-11,2.26-4.11,6.35-7.16,7.88-11.6s.18-9.56.89-14.29c1.11-2.53,2.11-5.1,3-7.72a26.28,26.28,0,0,0,2-4.68,16.83,16.83,0,0,0,.51-4.84c.11-.58.2-1.17.3-1.76,1.7-5.08,2.11-10.51,2.22-15.88.25-12-.79-24,1.6-35.75,1.25-6.08,3.37-11.93,5.26-17.84,10.82,3.58,19.12,17.05,19.57,33.38.53,19.35-10.14,35.34-23.84,35.71-.31,0-.62,0-.93,0l7.35,42.11c21.2-10.28,30.53-30.65,37.51-58.22l4.07-4.89c5.08-6.1,10.2-12.25,14.08-19.27a68.26,68.26,0,0,0,7.94-26.31,109.52,109.52,0,0,0,7.28-20C1270.47,128.5,1271,119.09,1267.07,109.76Z"/><path fill="#fff" d="M1103,235.15a1.81,1.81,0,0,0-1.6-.63,1.88,1.88,0,0,0-1.13.63c-11.63,13.26-30.32,5.81-30.51,5.74a1.88,1.88,0,0,0-2.47,1.33,2.3,2.3,0,0,0,1.16,2.83c.86.36,21.16,8.49,34.55-6.77A2.43,2.43,0,0,0,1103,235.15Z"/><path fill="#f48f7d" d="M1123.39,87.58c13.36,2,27,5.79,37.34,14.47s16.69,23.3,12.33,36.1c-1.63,4.76-5.72,9.56-10.71,8.86-5.46-.76-7.78-7.11-10.92-11.64-8.54-12.31-26.18-12.74-41.16-12.68a446.62,446.62,0,0,1-52.22-2.83c-10.56-1.2-21.62-3-30-9.56-5.33-4.18-13.77-16.88-7.83-23.52,5.22-5.83,22.76-1.92,29.67-1.9C1074.41,85,1099.07,83.85,1123.39,87.58Z"/><path fill="#fbe2dc" d="M1026.63,263c.21,6.8-4.85,15.86-4.62,22.67.51,14.65,8.73,28.06,19,38.55,24.54,25.14,62.33,36.51,96.66,29.08,8-1.73,16-4.48,22.69-9.22,17.92-12.65,23.64-36.47,25.74-58.31,2.5-26.07,0-42.52,2.8-76.66.2-2.46-7.23-6.67-9.33-8-3.55-2.19-7.87,1.1-10.72,4.13l-30.42,32.41a118,118,0,0,1-11.85,11.5c-15.22,12.2-35.4,16-54.82,17.87-10.8,1-24.37,0-28.68-9.94-3.69-8.52,1.84-17.71-.76-26.13-1.75-5.67-4.44-5.72-8.43-9.36-2.86-2.61-9-11.76-10.49-15.15C1007.74,171.61,1026.41,255.46,1026.63,263Z"/><path fill="#001443" d="M1048.87,191.19H1025A13.18,13.18,0,0,1,1011.82,178V158.61A13.17,13.17,0,0,1,1025,145.46h23.89A13.17,13.17,0,0,1,1062,158.61V178A13.17,13.17,0,0,1,1048.87,191.19ZM1025,148.71a9.91,9.91,0,0,0-9.9,9.9V178a9.91,9.91,0,0,0,9.9,9.9h23.89a9.91,9.91,0,0,0,9.9-9.9V158.61a9.91,9.91,0,0,0-9.9-9.9Z"/><path fill="#001443" d="M1136.26,189.74h-45.2a13.17,13.17,0,0,1-13.15-13.16V157.16A13.17,13.17,0,0,1,1091.06,144h45.2a13.17,13.17,0,0,1,13.16,13.15v19.42A13.17,13.17,0,0,1,1136.26,189.74Zm-45.2-42.48a9.91,9.91,0,0,0-9.9,9.9v19.42a9.92,9.92,0,0,0,9.9,9.91h45.2a9.92,9.92,0,0,0,9.91-9.91V157.16a9.91,9.91,0,0,0-9.91-9.9Z"/><path fill="#001443" d="M1195.73,158.25H1147.8a1.09,1.09,0,1,1,0-2.17h47.93a1.09,1.09,0,1,1,0,2.17Z"/><path fill="#e56e5e" d="M1043.31,124.41c6-.67,12.07-1,18.11-1.24s12.06-.34,18.1-.38,12.07.08,18.1.37,12.07.58,18.1,1.25c-6,.68-12.06,1-18.1,1.25s-12.07.34-18.1.38-12.07-.09-18.1-.38S1049.35,125.08,1043.31,124.41Z"/><path fill="#e56e5e" d="M1054.08,112.22a138.55,138.55,0,0,1,42.25,0,121.4,121.4,0,0,1-21.13,1.63A123.19,123.19,0,0,1,1054.08,112.22Z"/></g></g></svg>