<svg xmlns="http://www.w3.org/2000/svg" viewBox="0 0 1364 960"><path fill="#FFEBF4" d="M1042.661 421.409s-57.613-14.084-57.503 61.469c.117 80.336 52.1 114.179 76.291 89.208 23.431-24.185-7.565-51.315 2.752-70.699 7.427-13.952 29.075-65.66-21.54-79.978z"/><path fill="#FFEBF4" d="M1110.495 711.109c-1.662 85.468-121.184 171.272-250.224 204.99-24.95 6.516-50.249 11.087-75.118 13.326-55.343 5.001-109.346-1.435-160.198-16.598-38.652-11.53-75.48-28.101-109.721-48.506-90.952-54.231-163.55-135.583-203.1-221.708-12.71-27.658-77.505-168.738-17.121-254.702 35.005-49.846 79.154-34.214 164.81-89.893 116.599-75.789 100.363-147.368 184.062-190.497C755.362 50.1 942.4 95.536 997.046 197.428c52.85 98.5-55.518 179.986-4.277 325.329 38.558 109.359 119.093 117.645 117.726 188.352z"/><path fill="#F595B8" d="M334.81 502.809c-.283 0-.566-.106-.784-.32a123.887 123.887 0 0 1-3.184-3.226 1.124 1.124 0 0 1 .039-1.587 1.124 1.124 0 0 1 1.587.039 122.574 122.574 0 0 0 3.126 3.168 1.123 1.123 0 0 1-.784 1.926zM325.689 492.863a1.12 1.12 0 0 1-.868-.411 124.507 124.507 0 0 1-5.504-7.233 1.122 1.122 0 1 1 1.835-1.293 122.465 122.465 0 0 0 5.404 7.102 1.121 1.121 0 0 1-.867 1.835zm-10.372-14.712c-.381 0-.753-.194-.963-.544a127.708 127.708 0 0 1-4.401-7.948 1.122 1.122 0 1 1 2.001-1.017c1.346 2.649 2.8 5.276 4.323 7.809a1.121 1.121 0 0 1-.96 1.7zm-8.156-16.043c-.437 0-.853-.258-1.034-.686a133.603 133.603 0 0 1-3.249-8.48 1.122 1.122 0 1 1 2.123-.731c.97 2.813 2.044 5.618 3.194 8.337a1.122 1.122 0 0 1-1.034 1.56zm-5.869-17.015c-.494 0-.947-.329-1.082-.829a139.37 139.37 0 0 1-2.092-8.833 1.122 1.122 0 1 1 2.2-.446 138.306 138.306 0 0 0 2.058 8.69 1.121 1.121 0 0 1-1.084 1.418zm-3.582-17.639a1.122 1.122 0 0 1-1.11-.97 146.005 146.005 0 0 1-.953-9.025 1.121 1.121 0 0 1 1.036-1.202 1.116 1.116 0 0 1 1.203 1.036c.22 2.967.536 5.956.938 8.885a1.123 1.123 0 0 1-1.114 1.276zm-1.336-17.951a1.123 1.123 0 0 1-1.122-1.108 150.133 150.133 0 0 1 .16-9.077c.03-.62.581-1.093 1.175-1.068.619.03 1.097.556 1.068 1.176a146.899 146.899 0 0 0-.158 8.939 1.123 1.123 0 0 1-1.108 1.137l-.015.001zm.864-17.989a1.122 1.122 0 0 1-1.118-1.244c.326-3 .748-6.025 1.253-8.991a1.122 1.122 0 1 1 2.213.377 148.093 148.093 0 0 0-1.234 8.856 1.122 1.122 0 0 1-1.114 1.002zm3.026-17.756a1.12 1.12 0 0 1-1.094-1.378 147.496 147.496 0 0 1 2.338-8.775 1.123 1.123 0 0 1 2.151.645 144.902 144.902 0 0 0-2.303 8.64 1.123 1.123 0 0 1-1.092.868zm5.179-17.255a1.123 1.123 0 0 1-1.053-1.513 141.419 141.419 0 0 1 3.428-8.414 1.123 1.123 0 0 1 2.05.914 137.84 137.84 0 0 0-3.373 8.279 1.122 1.122 0 0 1-1.052.734zm7.343-16.451a1.122 1.122 0 0 1-.991-1.647 130.61 130.61 0 0 1 4.527-7.883 1.122 1.122 0 1 1 1.906 1.186 128.56 128.56 0 0 0-4.449 7.747c-.201.38-.591.597-.993.597zM427.254 328.4a1.123 1.123 0 0 1-.164-2.233c2.66-.397 5.336-1.405 7.953-2.999a1.122 1.122 0 1 1 1.167 1.918c-2.874 1.749-5.831 2.859-8.789 3.301a1.035 1.035 0 0 1-.167.013zm-8.835-.998c-.14 0-.283-.027-.422-.083-2.787-1.13-5.35-3.001-7.62-5.559a1.122 1.122 0 1 1 1.68-1.49c2.038 2.298 4.321 3.969 6.784 4.969a1.122 1.122 0 0 1-.422 2.163zm-96.113-2.639a1.122 1.122 0 0 1-.906-1.783 119.55 119.55 0 0 1 5.627-7.144 1.122 1.122 0 1 1 1.709 1.455 118.276 118.276 0 0 0-5.521 7.009 1.12 1.12 0 0 1-.909.463zm120.185-5.295a1.123 1.123 0 0 1-.839-1.868c1.969-2.217 3.574-4.646 4.772-7.217a1.123 1.123 0 0 1 2.035.948c-1.29 2.769-3.015 5.38-5.129 7.76a1.12 1.12 0 0 1-.839.377zm-36.159-4.86c-.414 0-.812-.23-1.007-.626a54.136 54.136 0 0 1-3.349-8.552 1.122 1.122 0 1 1 2.152-.638 51.818 51.818 0 0 0 3.211 8.196 1.122 1.122 0 0 1-1.007 1.62zm-72.345-3.54a1.122 1.122 0 0 1-.794-1.916c2.15-2.15 4.401-4.222 6.691-6.16a1.123 1.123 0 0 1 1.45 1.714 107.63 107.63 0 0 0-6.554 6.032c-.219.22-.506.33-.793.33zm115.745-7.744-.065-.002a1.123 1.123 0 0 1-1.057-1.184c.02-.345.03-.69.03-1.033 0-2.576-.565-4.963-1.678-7.095a1.122 1.122 0 1 1 1.99-1.039c1.282 2.457 1.933 5.193 1.933 8.134 0 .386-.011.773-.033 1.16a1.124 1.124 0 0 1-1.12 1.059zm-102.008-3.859a1.121 1.121 0 0 1-.649-2.039 102.233 102.233 0 0 1 7.65-4.912 1.121 1.121 0 1 1 1.127 1.941 99.92 99.92 0 0 0-7.481 4.803c-.197.14-.423.207-.647.207zm53.501-2.038a1.124 1.124 0 0 1-1.113-.987 57.577 57.577 0 0 1-.377-9.165 1.135 1.135 0 0 1 1.164-1.08c.62.024 1.103.545 1.079 1.164a55.346 55.346 0 0 0 .362 8.808 1.122 1.122 0 0 1-1.115 1.26zm-37.959-6.975a1.124 1.124 0 0 1-.473-2.141 99.11 99.11 0 0 1 8.42-3.445 1.122 1.122 0 1 1 .753 2.115 96.975 96.975 0 0 0-8.228 3.367 1.13 1.13 0 0 1-.472.104zm78.615-2.346a1.11 1.11 0 0 1-.614-.184c-2.18-1.429-4.838-2.59-7.901-3.448a1.122 1.122 0 0 1 .605-2.161c3.286.92 6.155 2.177 8.527 3.733a1.122 1.122 0 0 1-.617 2.06zm-61.691-3.687a1.123 1.123 0 0 1-.278-2.21c2.912-.745 5.907-1.37 8.901-1.858a1.122 1.122 0 1 1 .361 2.216 99.735 99.735 0 0 0-8.705 1.816 1.074 1.074 0 0 1-.279.036zm44.658-1.681c-.059 0-.118-.004-.177-.014a123.667 123.667 0 0 0-8.855-1.08 1.124 1.124 0 0 1 .19-2.238c2.968.253 6.001.622 9.016 1.099a1.123 1.123 0 0 1-.174 2.233zm-26.925-1.211a1.122 1.122 0 0 1-.083-2.242 111.71 111.71 0 0 1 3.157-.19c-.204-.248-.3-.58-.237-.92a67.486 67.486 0 0 1 2.299-8.854 1.122 1.122 0 1 1 2.13.71 65.27 65.27 0 0 0-2.223 8.558 1.13 1.13 0 0 1-.185.44 112.88 112.88 0 0 1 3.292-.049l.853.003a1.122 1.122 0 0 1-.009 2.245h-.009l-.835-.003c-2.703 0-5.416.1-8.065.299a1.228 1.228 0 0 1-.085.003zm9.579-19.067a1.12 1.12 0 0 1-1.012-1.607 79.028 79.028 0 0 1 4.421-7.986 1.122 1.122 0 1 1 1.898 1.198 76.625 76.625 0 0 0-4.294 7.758 1.125 1.125 0 0 1-1.013.637zm9.569-15.209a1.123 1.123 0 0 1-.879-1.82 90.087 90.087 0 0 1 6.025-6.838 1.122 1.122 0 1 1 1.608 1.566 87.878 87.878 0 0 0-5.875 6.667 1.12 1.12 0 0 1-.879.425zm406.316-1.638a565.922 565.922 0 0 1-6.09-.036 1.122 1.122 0 0 1-1.109-1.136c.007-.62.514-1.143 1.136-1.109 3.023.035 6.019.047 8.986.027h.007a1.121 1.121 0 0 1 .007 2.245c-.976.007-1.955.009-2.937.009zm11.935-.149a1.121 1.121 0 0 1-.028-2.244c3.034-.078 6.054-.189 8.976-.329a1.122 1.122 0 1 1 .107 2.243c-2.939.141-5.976.252-9.026.331l-.029-.001zm-27.018-.064-.031-.001a625.676 625.676 0 0 1-9.021-.314 1.122 1.122 0 0 1-1.074-1.169c.026-.62.527-1.091 1.169-1.074 3.017.126 6.014.231 8.988.313a1.122 1.122 0 0 1-.031 2.245zm-18.003-.75-.063-.002c-2.987-.164-5.99-.347-9.007-.548a1.123 1.123 0 0 1 .149-2.24c3.009.2 6.003.383 8.981.546a1.122 1.122 0 0 1-.06 2.244zm63.013-.06a1.122 1.122 0 0 1-.081-2.241 314.97 314.97 0 0 0 8.94-.785 1.117 1.117 0 0 1 1.231 1.002 1.121 1.121 0 0 1-1.002 1.231c-2.916.3-5.946.566-9.005.79l-.083.003zm-80.995-1.135-.088-.003a901.85 901.85 0 0 1-8.991-.742 1.123 1.123 0 0 1-1.021-1.216 1.129 1.129 0 0 1 1.216-1.021c3 .262 5.99.509 8.969.739a1.124 1.124 0 0 1-.085 2.243zm98.909-.722a1.123 1.123 0 0 1-.151-2.234c3.03-.415 6.009-.882 8.854-1.387a1.123 1.123 0 0 1 .392 2.211c-2.874.51-5.882.981-8.942 1.4-.051.007-.103.01-.153.01zm-116.861-.844c-.036 0-.072-.002-.109-.005-2.986-.288-5.978-.59-8.975-.904a1.122 1.122 0 1 1 .235-2.233c2.991.314 5.977.615 8.956.902a1.124 1.124 0 0 1-.107 2.24zm-17.922-1.877c-.042 0-.084-.002-.127-.007-2.99-.337-5.984-.685-8.977-1.043a1.123 1.123 0 0 1-.981-1.248 1.132 1.132 0 0 1 1.247-.982c2.989.358 5.977.705 8.962 1.041a1.123 1.123 0 0 1-.124 2.239zm152.509-.447a1.123 1.123 0 0 1-.247-2.217 160.7 160.7 0 0 0 8.663-2.21 1.123 1.123 0 0 1 .617 2.159 162.413 162.413 0 0 1-8.785 2.241 1.156 1.156 0 0 1-.248.027zm-170.432-1.696c-.047 0-.094-.003-.143-.009-2.983-.377-5.965-.762-8.943-1.157a1.122 1.122 0 0 1-.965-1.26 1.112 1.112 0 0 1 1.26-.965c2.974.393 5.951.778 8.93 1.154a1.123 1.123 0 0 1-.139 2.237zm-17.858-2.36c-.052 0-.103-.003-.155-.01-2.977-.411-5.948-.828-8.911-1.251a1.122 1.122 0 0 1 .318-2.222c2.959.423 5.927.84 8.9 1.249.614.085 1.043.651.959 1.266-.079.56-.56.968-1.111.968zm205.583-.932a1.124 1.124 0 0 1-.382-2.179 105.797 105.797 0 0 0 8.241-3.37 1.124 1.124 0 0 1 .941 2.039 108.455 108.455 0 0 1-8.418 3.443 1.135 1.135 0 0 1-.382.067zm-476.641-.213a1.121 1.121 0 0 1-.725-1.979 100.837 100.837 0 0 1 7.207-5.558 1.123 1.123 0 0 1 1.291 1.837 98.69 98.69 0 0 0-7.046 5.434 1.132 1.132 0 0 1-.727.266zm253.235-1.401a1.17 1.17 0 0 1-.166-.012c-2.983-.44-5.955-.885-8.916-1.334a1.123 1.123 0 0 1 .336-2.22c2.958.449 5.928.893 8.907 1.333a1.123 1.123 0 0 1-.161 2.233zm-17.818-2.701c-.057 0-.115-.004-.174-.013-2.984-.464-5.954-.931-8.906-1.399a1.124 1.124 0 0 1-.933-1.285 1.128 1.128 0 0 1 1.285-.933c2.95.469 5.917.935 8.899 1.398a1.123 1.123 0 0 1-.171 2.232zm-17.8-2.825c-.06 0-.12-.004-.181-.014-2.987-.482-5.953-.966-8.896-1.449a1.123 1.123 0 0 1 .364-2.216c2.941.483 5.905.966 8.891 1.448a1.123 1.123 0 0 1-.178 2.231zm275.323-.444a1.122 1.122 0 0 1-.575-2.087 68.004 68.004 0 0 0 7.297-4.997 1.124 1.124 0 0 1 1.391 1.763 70.354 70.354 0 0 1-7.539 5.163 1.125 1.125 0 0 1-.574.158zm-293.107-2.472c-.061 0-.123-.005-.185-.015-2.992-.497-5.956-.991-8.891-1.482a1.122 1.122 0 1 1 .37-2.214c2.933.491 5.897.985 8.888 1.482a1.123 1.123 0 0 1-.182 2.229zm-185.123-.5a1.121 1.121 0 0 1-.565-2.093 110.763 110.763 0 0 1 8.045-4.235 1.123 1.123 0 1 1 .964 2.027 109.053 109.053 0 0 0-7.882 4.149 1.11 1.11 0 0 1-.562.152zm167.345-2.474c-.061 0-.124-.005-.187-.015l-8.887-1.496a1.124 1.124 0 0 1 .373-2.215l8.887 1.496a1.124 1.124 0 0 1-.186 2.23zm-17.774-2.991a1.21 1.21 0 0 1-.188-.015c-3.011-.505-5.975-1.001-8.888-1.486a1.121 1.121 0 1 1 .368-2.214c2.914.485 5.879.981 8.891 1.486a1.122 1.122 0 0 1-.183 2.229zm-133.335-2.27a1.124 1.124 0 0 1-.403-2.171 123.502 123.502 0 0 1 8.596-2.931 1.122 1.122 0 1 1 .646 2.15c-2.862.86-5.701 1.828-8.439 2.877-.13.051-.266.075-.4.075zm476.014-.463a1.122 1.122 0 0 1-.825-1.883 48.874 48.874 0 0 0 5.35-6.954 1.121 1.121 0 1 1 1.897 1.199 50.961 50.961 0 0 1-5.596 7.277 1.122 1.122 0 0 1-.826.361zm-360.462-.221c-.06 0-.122-.005-.183-.015-3.03-.496-5.996-.976-8.894-1.439a1.122 1.122 0 1 1 .354-2.216c2.899.463 5.869.943 8.902 1.44a1.121 1.121 0 0 1-.179 2.23zm-17.804-2.834c-.056 0-.114-.004-.172-.013-3.064-.471-6.035-.915-8.906-1.331a1.122 1.122 0 1 1 .322-2.222c2.878.417 5.855.862 8.926 1.334a1.122 1.122 0 0 1-.17 2.232zm-80.526-1.667a1.122 1.122 0 0 1-.245-2.217 136.794 136.794 0 0 1 8.916-1.692 1.123 1.123 0 1 1 .345 2.219 133.88 133.88 0 0 0-8.769 1.664 1.152 1.152 0 0 1-.247.026zm62.679-.904c-.049 0-.098-.003-.148-.01-3.186-.42-6.189-.788-8.928-1.095a1.121 1.121 0 1 1 .25-2.23c2.753.308 5.771.679 8.971 1.101a1.123 1.123 0 0 1-.145 2.234zm-44.904-1.872a1.124 1.124 0 0 1-.101-2.241c2.968-.271 6.013-.456 9.05-.55.642-.037 1.138.468 1.157 1.087a1.123 1.123 0 0 1-1.087 1.157c-2.993.093-5.992.276-8.916.543a1.182 1.182 0 0 1-.103.004zm26.98-.096-.09-.003a167.495 167.495 0 0 0-8.931-.47 1.123 1.123 0 0 1-1.094-1.15c.016-.62.531-1.131 1.151-1.093 2.979.076 6.024.236 9.052.475a1.123 1.123 0 0 1-.088 2.241zm423.569-7.524a1.123 1.123 0 0 1-1.045-1.534 49.575 49.575 0 0 0 2.463-8.422 1.123 1.123 0 0 1 2.201.439 51.776 51.776 0 0 1-2.575 8.804 1.12 1.12 0 0 1-1.044.713zm3.575-17.528-.05-.001a1.122 1.122 0 0 1-1.072-1.171l.027-.703a50.66 50.66 0 0 0-.387-8.083 1.122 1.122 0 1 1 2.227-.283 53.79 53.79 0 0 1 .404 8.44l-.028.728a1.124 1.124 0 0 1-1.121 1.073zm-2.219-17.752c-.485 0-.933-.317-1.076-.807a64.255 64.255 0 0 0-3.083-8.274 1.123 1.123 0 0 1 2.047-.923 66.562 66.562 0 0 1 3.191 8.565 1.122 1.122 0 0 1-1.079 1.439zm-7.316-16.383c-.381 0-.754-.195-.964-.546a93.305 93.305 0 0 0-4.94-7.397 1.123 1.123 0 0 1 1.808-1.332 96.044 96.044 0 0 1 5.058 7.575 1.123 1.123 0 0 1-.962 1.7zm-10.633-14.512a1.12 1.12 0 0 1-.849-.388 136.857 136.857 0 0 0-6.076-6.553 1.124 1.124 0 0 1 1.597-1.579 139.39 139.39 0 0 1 6.176 6.662 1.122 1.122 0 0 1-.848 1.858zm-12.639-12.836a1.12 1.12 0 0 1-.753-.29 189.893 189.893 0 0 0-6.784-5.855 1.123 1.123 0 0 1 1.427-1.733c2.38 1.96 4.689 3.953 6.864 5.924a1.124 1.124 0 0 1-.754 1.954zm-13.897-11.472c-.236 0-.474-.074-.677-.228a255.011 255.011 0 0 0-7.258-5.293 1.122 1.122 0 1 1 1.292-1.836 257.626 257.626 0 0 1 7.323 5.34 1.122 1.122 0 0 1-.68 2.017zm-14.751-10.381c-.211 0-.425-.059-.615-.184a312.62 312.62 0 0 0-7.583-4.821 1.123 1.123 0 0 1 1.178-1.912 320.232 320.232 0 0 1 7.637 4.856 1.121 1.121 0 0 1-.617 2.061zm-15.348-9.47c-.191 0-.385-.049-.563-.152a377.835 377.835 0 0 0-7.829-4.424 1.121 1.121 0 0 1-.443-1.524 1.12 1.12 0 0 1 1.524-.443 377.184 377.184 0 0 1 7.876 4.451c.536.312.718.999.407 1.535a1.125 1.125 0 0 1-.972.557zm-15.807-8.693c-.174 0-.352-.041-.517-.127a420.5 420.5 0 0 0-8.025-4.07 1.122 1.122 0 1 1 .994-2.012 419.197 419.197 0 0 1 8.068 4.092 1.122 1.122 0 0 1-.52 2.117zm-16.177-7.991a1.12 1.12 0 0 1-.475-.106 420.045 420.045 0 0 0-8.192-3.728 1.122 1.122 0 0 1 .907-2.053 421.85 421.85 0 0 1 8.236 3.748 1.122 1.122 0 0 1-.476 2.139zM824.431 66.425a1.11 1.11 0 0 1-.427-.085 182.318 182.318 0 0 0-4.135-1.657 1.124 1.124 0 0 1 .799-2.099s1.505.573 4.191 1.679a1.124 1.124 0 0 1-.428 2.162zM887.681 863.138c3.699-1.012 6.408-4.509 7.09-8.277.681-3.768-.443-7.702-2.457-10.96-2.014-3.258-4.861-5.919-7.843-8.325-4.935-3.983-10.542-7.446-16.662-8.893a181.46 181.46 0 0 1 25.048-12.306c.787-.314 1.58-.614 2.371-.918l6.065 18.973c1.349 4.219 2.758 8.553 5.586 11.965 2.828 3.412 7.45 5.728 11.728 4.558 3.699-1.012 6.408-4.509 7.09-8.277.682-3.768-.443-7.701-2.457-10.959s-4.861-5.919-7.843-8.325c-5.09-4.108-10.895-7.666-17.242-9.025a185.132 185.132 0 0 1 29.904-8.134l6.883 18.987c1.51 4.164 3.085 8.44 6.042 11.742 2.957 3.301 7.664 5.439 11.895 4.105 3.657-1.153 6.23-4.751 6.767-8.543.536-3.791-.739-7.679-2.876-10.857-2.137-3.179-5.085-5.728-8.157-8.019-4.919-3.667-10.447-6.83-16.391-8.129a182.206 182.206 0 0 1 22.327-2.189 175.24 175.24 0 0 1 6.644-.096l7.722 19.294c1.646 4.113 3.361 8.335 6.425 11.537 3.063 3.202 7.838 5.184 12.023 3.713 3.617-1.273 6.07-4.953 6.481-8.76.412-3.807-.991-7.651-3.231-10.757-2.241-3.107-5.271-5.558-8.417-7.747-4.495-3.127-9.463-5.831-14.732-7.163a174.653 174.653 0 0 1 22.409 2.305l15.578 12.956c3.408 2.834 6.928 5.732 11.15 7.093 4.222 1.36 9.366.834 12.346-2.448 2.576-2.838 2.979-7.24 1.526-10.783-1.452-3.543-4.518-6.256-7.969-7.924-3.452-1.667-7.285-2.383-11.096-2.813-7.022-.792-14.403-.599-20.84 2.218-.024-.006-.044-.015-.069-.019a176.345 176.345 0 0 0-23.854-2.406c5.42-1.761 10.374-5.054 14.768-8.758 2.93-2.471 5.722-5.192 7.666-8.493 1.945-3.301 2.986-7.257 2.226-11.01-.761-3.753-3.543-7.191-7.262-8.123-4.302-1.078-8.875 1.337-11.63 4.809-2.755 3.472-4.073 7.835-5.333 12.082l-5.755 19.406a182.126 182.126 0 0 0-29.245 2.279c5.164-3.054 9.395-7.69 12.909-12.616 2.225-3.119 4.252-6.447 5.316-10.126 1.064-3.679 1.089-7.77-.581-11.216-1.67-3.446-5.219-6.087-9.054-6.068-4.436.022-8.265 3.495-10.071 7.54-1.806 4.047-1.999 8.599-2.163 13.025l-.751 20.214c-.303.056-.607.105-.91.162a187.781 187.781 0 0 0-29.178 8.027c5.303-4.132 8.986-10.15 11.719-16.342 1.547-3.504 2.857-7.173 3.153-10.99.295-3.818-.509-7.829-2.843-10.866-2.334-3.038-6.347-4.905-10.098-4.111-4.339.918-7.385 5.093-8.334 9.42-.948 4.327-.214 8.824.523 13.192l3.472 20.589-.394.152-.16-.115.05.157a184.613 184.613 0 0 0-26.577 12.674c2.92-5.286 4.258-11.458 4.831-17.525.367-3.886.455-7.854-.487-11.641s-3.008-7.409-6.239-9.599c-3.23-2.189-7.706-2.71-11.075-.739-3.897 2.28-5.497 7.294-5.023 11.784.475 4.49 2.63 8.604 4.745 12.592l9.012 16.995.178.556a175.885 175.885 0 0 0-25.942 19.455c-.848.768.19 2.238 1.049 1.46a175.533 175.533 0 0 1 25.458-19.148l5.753 17.999c1.349 4.219 2.758 8.552 5.586 11.965 2.826 3.412 7.448 5.728 11.727 4.558z"/><path fill="#5B71B3" d="M993.222 637.093c-21.167 26.865-10.034 71.82-30.281 100.532-12.303 16.045-31.25 16.26-47.933 20.08-29.391 9.528-61.8 21.941-86.522 47.146-10.781 12.438-18.491 29.148-30.642 39.227-5.224-13.153-9.35-29.879-11.125-47.301.19-.43.396-.87.598-1.297 8.026-16.706 20.604-31.61 38.342-38.257 16.149-6.056 35.308-5.894 49.039-17.422 7.515-6.307 11.831-15.348 16.11-23.958 4.425-8.886 9.208-17.175 16.839-23.699 12.726-10.898 30.396-17.549 38.801-32.849 5.119-9.341 5-20.151 6.172-30.447.648-5.759 1.797-11.488 4.468-16.68 2.279-4.431 5.405-8.336 8.884-11.878 6.863-6.987 14.919-12.659 21.889-19.533 7.079-6.968 12.415-15.309 16.225-24.465 8.313-19.996 9.443-41.867 12.692-63.02 2.947-19.137 7.865-39.491 20.659-54.625.434-.514.881-1.024 1.337-1.518 2.855.855 5.628 2.545 8.232 5.181 19.001 24.973-10.816 63.574-11.053 93.446 3.012 34.154 16.953 57.266-17.29 80.41-8.82 6.285-18.338 11.658-25.441 20.927z"/><path fill="#798DC7" d="M1016.78 493.271c-3.249 21.153-4.379 43.024-12.692 63.02-3.81 9.155-9.146 17.497-16.225 24.465-6.97 6.874-15.026 12.546-21.889 19.533-3.479 3.542-6.605 7.447-8.884 11.878-2.671 5.192-3.821 10.921-4.468 16.68-1.173 10.296-1.053 21.105-6.172 30.447-8.406 15.3-26.076 21.952-38.801 32.849-7.631 6.524-12.414 14.812-16.839 23.699-4.279 8.61-8.595 17.651-16.11 23.958-13.732 11.528-32.89 11.366-49.039 17.422-17.737 6.647-30.315 21.551-38.342 38.257-.203.426-.408.866-.598 1.297a83.575 83.575 0 0 1-.251-2.654c-3.562-40.373 5.744-83.674 43.338-94.522 19.361-.956 35.423.148 39.732-29.467 12.539-48.032 9.121-101.931 59.356-113.616 21.962-6.734 57.779-6.807 68.543-37.665 2.58-12.802-.902-25.466 1.324-38.285 2.33-22.999 21.49-47.29 38.506-43.819a9.934 9.934 0 0 1 1.509.382 44.889 44.889 0 0 0-1.337 1.518c-12.796 15.133-17.714 35.486-20.661 54.623z"/><path fill="#FFF" d="M1016.78 493.271c-3.249 21.153-4.379 43.024-12.692 63.02-3.81 9.155-9.146 17.497-16.225 24.465-6.97 6.874-15.026 12.546-21.889 19.533-3.479 3.542-6.605 7.447-8.884 11.878-2.671 5.192-3.821 10.921-4.468 16.68-1.173 10.296-1.053 21.105-6.172 30.447-8.406 15.3-26.076 21.952-38.801 32.849-7.631 6.524-12.414 14.812-16.839 23.699-4.279 8.61-8.595 17.651-16.11 23.958-13.732 11.528-32.89 11.366-49.039 17.422-17.737 6.647-30.315 21.551-38.342 38.257-.203.426-.408.866-.598 1.297a83.575 83.575 0 0 1-.251-2.654c1.939-3.96 4.16-7.842 6.688-11.637 4.678-6.978 10.351-13.318 17.09-18.337 7.175-5.338 15.284-8.688 23.896-10.972 8.787-2.317 17.849-3.742 26.383-6.932 9.764-3.632 17.199-9.851 22.626-18.76 5.305-8.722 8.783-18.469 14.755-26.811 5.034-7.016 11.877-12.255 18.946-17.071 7.388-5.016 15.182-9.656 21.547-15.996 7.738-7.695 10.781-17.121 11.872-27.812 1.048-10.344 1.306-20.924 6.683-30.151 4.764-8.17 12.159-14.345 19.288-20.359 7.87-6.636 15.423-13.374 20.883-22.206 5.802-9.412 9.318-20.032 11.717-30.758 7.238-32.276 5.054-73.768 28.424-99.573a9.934 9.934 0 0 1 1.509.382 44.889 44.889 0 0 0-1.337 1.518c-12.795 15.134-17.713 35.487-20.66 54.624z"/><path fill="#F595B8" d="M447.946 660.905c-2.134-4.643 1.11-10.379 5.761-12.468 4.651-2.091 10.1-1.36 14.999.118 7.924 2.39 14.624 6.253 21.446 10.598a339.717 339.717 0 0 1-11.904-19.685 347.628 347.628 0 0 1-7.139-13.422c-10.474 4.729-22.378 6.255-33.702 4.285-4.292-.747-9.004-2.394-10.813-6.357-2.114-4.63 1.13-10.366 5.767-12.465 4.637-2.099 10.062-1.383 14.937.081 8.185 2.457 15.053 6.504 22.106 11.026-6.878-14.031-12.773-28.554-17.362-43.479-10.955 2.865-22.756 2.45-33.465-1.237-4.12-1.418-8.511-3.791-9.669-7.991-1.352-4.906 2.76-10.056 7.672-11.391 4.911-1.337 10.154.229 14.735 2.448 7.423 3.594 13.4 8.454 19.423 13.808-4.59-15.809-7.903-32.627-6.357-49.064.032-.342.08-.683.114-1.025-11.368 1.363-23.137-.727-33.323-5.963-3.875-1.992-7.883-4.968-8.43-9.289-.638-5.05 4.168-9.559 9.219-10.181 5.051-.622 10.016 1.677 14.234 4.526 7.431 5.02 12.957 11.278 18.616 18.065 2.303-18.939 8.109-37.535 9.757-56.523-11.549 1.507-23.546-.559-33.907-5.885-3.875-1.991-7.883-4.967-8.429-9.29-.638-5.049 4.168-9.558 9.219-10.18 5.051-.622 10.017 1.677 14.234 4.526 7.631 5.155 13.253 11.616 19.073 18.614.328-4.753.38-9.53.026-14.347-.716-9.753-3.514-19.259-7.826-28.127-10.954 4.69-23.375 5.897-35.021 3.363-4.256-.927-8.896-2.77-10.537-6.806-1.917-4.715 1.565-10.31 6.286-12.211 4.721-1.902 10.111-.959 14.92.708 8.819 3.057 15.988 7.939 23.524 13.286-7.255-14.165-18.368-26.596-31.032-35.623-10.383 3.013-21.618 3.074-32.019.107-4.19-1.196-8.702-3.33-10.083-7.462-1.614-4.828 2.218-10.189 7.05-11.787 4.832-1.597 10.152-.314 14.845 1.656 7.487 3.142 13.639 7.584 19.841 12.514.292.038.592.143.891.346 10.95 7.442 20.319 17.11 27.749 28.049a119.163 119.163 0 0 1 4.662 7.438c-1.422-10.421.023-21.232 4.21-30.884 1.734-3.997 4.442-8.191 8.719-9.019 4.997-.967 9.81 3.533 10.761 8.533.951 5-1.019 10.105-3.586 14.501-4.789 8.197-11.1 14.354-17.94 20.831 2.836 5.464 5.162 11.186 6.637 17.155 2.235 9.039 2.64 18.129 2.042 27.212 3.422-10.295 9.778-19.609 18.165-26.496 3.367-2.765 7.69-5.261 11.874-4.046 4.887 1.42 7.116 7.622 5.68 12.505-1.436 4.883-5.518 8.526-9.808 11.265-8.221 5.247-16.891 7.846-26.213 10.563-1.422 14.952-5.273 29.865-7.919 44.487-.833 4.603-1.53 9.194-1.976 13.8 3.146-11.353 9.841-21.7 18.937-29.189 3.363-2.769 7.684-5.271 11.868-4.061 4.889 1.414 7.126 7.613 5.697 12.497-1.429 4.885-5.507 8.534-9.794 11.278-8.401 5.378-17.275 7.986-26.837 10.785-.421 4.915-.531 9.849-.157 14.837.685 9.123 2.406 18.157 4.667 27.013a229.195 229.195 0 0 0 1.922 7.035c1.86-10.52 6.671-20.516 13.788-28.489 2.901-3.25 6.788-6.382 11.108-5.825 5.048.65 8.206 6.435 7.539 11.48-.667 5.046-4.139 9.275-7.957 12.641-7.053 6.221-14.896 10.072-23.331 14.033 4.486 14.581 10.355 28.766 17.091 42.453-.815-11.12 1.637-22.47 7.032-32.23 2.108-3.812 5.204-7.729 9.541-8.144 5.066-.485 9.428 4.455 9.896 9.523.469 5.068-1.979 9.961-4.955 14.091-5.647 7.836-12.662 13.419-20.238 19.324a380.098 380.098 0 0 0 2.76 5.398c5.136 9.82 10.736 19.445 16.851 28.727-.628-10.841 1.838-21.857 7.095-31.365 2.108-3.813 5.204-7.728 9.541-8.144 5.066-.485 9.428 4.455 9.897 9.524.469 5.068-1.98 9.961-4.956 14.091-5.492 7.621-12.276 13.111-19.612 18.838 7.098 10.497 14.875 20.527 23.424 29.859 1.78 1.944-1.357 4.572-3.134 2.632-8.633-9.423-16.466-19.569-23.625-30.172-10.528 4.739-22.51 6.254-33.919 4.246-4.31-.763-9.046-2.424-10.873-6.397z"/><path fill="#798DC7" d="m548.221 721.159 2.774 68.175c-6.392-4.634-13.302-8.65-19.978-12.755-6.567-4.038-13.092-8.265-18.888-13.409-5.895-5.229-10.402-11.368-14.329-18.157-3.798-6.568-7.297-13.392-12.408-19.09-4.01-4.487-8.967-8.002-14.239-10.861-10.925-5.949-23.043-9.227-34.113-14.852-5.581-2.82-10.837-6.268-15.203-10.773-5.273-5.427-9.1-12.045-12.677-18.654-3.573-6.596-6.946-13.343-11.353-19.44-3.754-5.196-8.273-9.813-13.343-13.729-10.151-7.873-22.262-12.963-34.751-15.714-30.573-6.757-61.73 1.248-90.894 10.471a699.603 699.603 0 0 0-5.176 1.662c-2.384-17.713 23.275-31.715 39.432-34.771 11.052-2.088 22.376 1.677 33.607 1.298 56.919-1.876 93.927-21.387 120.786 43.98 3 7.318 5.589 15.132 11.145 20.761 25.142 22.01 88.342 6.769 89.608 55.858z"/><path fill="#5B71B3" d="M504.449 860.205c-46.133 16.894-93.124-23.078-63.318-74.892 20.753-26.711-6.169-43.268-30.249-49.246-11.95-2.982-26.549-3.558-32.913-14.11-11.084-24.005 20.24-54.912-31.374-67.083-29.125-6.882-83.234 18.859-92.586-18.916-.041-.176-.087-.366-.116-.547 27.691-8.945 56.706-17.537 86.01-13.804 12.866 1.639 25.581 5.559 36.715 12.302 5.439 3.288 10.472 7.274 14.837 11.911 4.854 5.167 8.607 11.136 12.022 17.33 3.604 6.557 6.894 13.316 11.127 19.512 3.72 5.455 8.215 10.225 13.66 13.993 9.84 6.804 21.409 10.374 32.352 14.96 5.561 2.345 11.079 4.966 16.04 8.45 5.666 4.004 10.086 9.134 13.761 14.997 4.011 6.413 7.263 13.286 11.771 19.38 4.343 5.898 9.834 10.819 15.729 15.129 10.622 7.796 22.56 13.67 33.142 21.522-.001 0 5.285 50.107-46.61 69.112z"/><path fill="#035875" d="m550.995 789.333.064 1.76c-10.582-7.852-22.52-13.726-33.142-21.522-5.895-4.31-11.386-9.231-15.729-15.129-4.508-6.094-7.76-12.967-11.771-19.38-3.675-5.863-8.094-10.993-13.761-14.997-4.961-3.484-10.479-6.105-16.04-8.45-10.944-4.586-22.512-8.156-32.352-14.96-5.445-3.768-9.94-8.538-13.66-13.993-4.233-6.196-7.522-12.955-11.127-19.512-3.416-6.194-7.169-12.164-12.022-17.33-4.365-4.637-9.398-8.623-14.837-11.911-11.134-6.743-23.849-10.663-36.715-12.302-29.304-3.732-58.319 4.86-86.01 13.804-.103-.463-.19-.917-.249-1.38 1.732-.566 3.454-1.114 5.176-1.662 29.164-9.223 60.321-17.228 90.894-10.471 12.49 2.751 24.6 7.841 34.751 15.714 5.069 3.916 9.588 8.533 13.343 13.729 4.406 6.097 7.779 12.844 11.353 19.44 3.577 6.609 7.404 13.226 12.677 18.654 4.366 4.505 9.622 7.954 15.203 10.773 11.07 5.625 23.188 8.904 34.113 14.852 5.272 2.859 10.229 6.374 14.239 10.861 5.111 5.698 8.61 12.522 12.408 19.09 3.926 6.79 8.433 12.928 14.329 18.157 5.796 5.144 12.321 9.371 18.888 13.409 6.674 4.107 13.585 8.123 19.977 12.756z"/><path fill="#FFF" d="m550.995 789.333.064 1.76c-10.582-7.852-22.52-13.726-33.142-21.522-5.895-4.31-11.386-9.231-15.729-15.129-4.508-6.094-7.76-12.967-11.771-19.38-3.675-5.863-8.094-10.993-13.761-14.997-4.961-3.484-10.479-6.105-16.04-8.45-10.944-4.586-22.512-8.156-32.352-14.96-5.445-3.768-9.94-8.538-13.66-13.993-4.233-6.196-7.522-12.955-11.127-19.512-3.416-6.194-7.169-12.164-12.022-17.33-4.365-4.637-9.398-8.623-14.837-11.911-11.134-6.743-23.849-10.663-36.715-12.302-29.304-3.732-58.319 4.86-86.01 13.804-.103-.463-.19-.917-.249-1.38 1.732-.566 3.454-1.114 5.176-1.662 29.164-9.223 60.321-17.228 90.894-10.471 12.49 2.751 24.6 7.841 34.751 15.714 5.069 3.916 9.588 8.533 13.343 13.729 4.406 6.097 7.779 12.844 11.353 19.44 3.577 6.609 7.404 13.226 12.677 18.654 4.366 4.505 9.622 7.954 15.203 10.773 11.07 5.625 23.188 8.904 34.113 14.852 5.272 2.859 10.229 6.374 14.239 10.861 5.111 5.698 8.61 12.522 12.408 19.09 3.926 6.79 8.433 12.928 14.329 18.157 5.796 5.144 12.321 9.371 18.888 13.409 6.674 4.107 13.585 8.123 19.977 12.756z"/><path fill="#523A23" d="M913.614 491.409c-11.463-21.824-28.824-41.208-39.018-63.645-1.924-6.01-2.664-12.286-1.534-19.161 3.542-21.713-.223-36.899-7.614-48.473-.865-2.705-3.333-6.596-4.281-7.488-5.927-7.809-13.624-13.987-21.071-20.262-54.818-37.038-17.208-97.49-26.914-149.268.321-2.301-3.793-13.025-7.419-19.565-5.732-27.89-21.531-51.22-57.398-62.558-22.34-20.416-79.124-31.879-121.225 10.264-28.587 22.117-45.447 58.318-45.447 94.032 0 6.847.614 13.694 1.897 20.402 4.197 38.698-34.556 31.125-17.682 84.103.92 5.871 3.179 12.453 6.512 19.579 2.719 5.815 6.15 11.993 10.152 18.408 40.859 65.458 140.692 156.004 140.692 156.004s38.698 164.608 83.629 118.422c5.787-5.941 11.56-10.696 17.236-14.6 6.373-4.365 12.634-7.684 18.7-10.459 2.413-1.116 4.797-2.12 7.14-3.082 4.337-1.771 8.534-3.361 12.592-4.978 3.723-1.464 7.307-2.956 10.738-4.616 16.581-8.004 29.564-19.955 35.964-53.214 3.263-16.915 1.729-30.735-2.148-42.658 25.91 45.099 2.552 90.504-44.178 106.764a105.18 105.18 0 0 1-6.247 1.966c-1.227.377-.697 2.315.53 1.924a139.261 139.261 0 0 0 5.62-1.883c13.011-4.644 25.547-11.128 36.104-20.053 25.812-20.725 30.958-57.666 14.67-85.905zM798.609 281.006c4.17-31.809 12.565-70.771 9.05-104.909a76.773 76.773 0 0 1 1.032 3.807c10.515 45.336-21.169 97.379 10.04 138.154 3.179 3.96 6.777 7.489 10.57 10.835-18.03-11.811-33.913-23.316-30.692-47.887zM566.2 297.782c-6.61-37.359 20.736-30.735 22.619-65.681-6.666-37.54-.432-74.495 23.999-103.445a149.976 149.976 0 0 0-2.608 3.946c-16.385 25.882-21.964 62.739-18.198 96.291 3.696 32.869-19.634 39.325-25.812 68.889z"/><path fill="#382818" d="M876.138 580.007c-.669 1.367-1.623 2.852-2.832 4.455-18.891 9.126-42.472 13.128-66.408 37.732-44.94 46.189-83.637-118.409-83.637-118.409S602.915 394.62 572.42 329.363c16.54-11.82 29.216-23.287 30.121-33.592 2.694-30.79-34.243-108.901 54.981-160.488l116.009 16.053c40.27 43.102 20.096 105.139-9.45 156.747-38.639 67.49 73.577 78.031 75.121 130.79 1.534 52.758-35.362 85.466-5.95 96.244 29.423 10.777 55.198 19.755 42.886 44.89z"/><path fill="#FF6E90" d="M842.145 863.409c.349 15.242 9.301 33.901 20.318 51.234-25.952 6.777-52.266 11.533-78.134 13.861-57.565 5.201-113.736-1.492-166.63-17.264-40.204-11.993-78.511-29.229-114.127-50.453 6.471-55.836 28.406-89.737 50.244-117.195a572.68 572.68 0 0 1 8.339-10.236c15.591-18.868 30.08-35.393 37.568-55.446a75.784 75.784 0 0 0 1.673-4.937 81.793 81.793 0 0 0 3.166-15.493c2.97-28.002-7.489-54.079-22.493-79.417-29.145-49.24-75.443-95.649-73.797-147.79 1.032-32.06 13.262-49.91 28.908-61.345a45.261 45.261 0 0 1 1.659-1.171c.014-.014.028-.014.042-.028 13.917-9.622 30.247-14.531 43.69-19.955a138.591 138.591 0 0 0 4.713-1.98c6.401-2.845 11.937-5.982 15.87-10.11a47.25 47.25 0 0 0 1.757-1.938c.349-.39.683-.795 1.018-1.199a55.686 55.686 0 0 0 2.859-3.765 37.61 37.61 0 0 0 1.046-1.52c.307-.46.614-.92.906-1.395.209-.307.404-.614.586-.934.349-.558.697-1.144 1.032-1.715a94.289 94.289 0 0 0 3.834-7.28c.153-.307.307-.627.446-.948.293-.6.572-1.213.837-1.841.265-.572.516-1.157.767-1.743.195-.474.404-.948.6-1.436.237-.586.474-1.185.711-1.785.279-.697.544-1.395.809-2.092.39-1.046.781-2.092 1.143-3.152.335-.934.655-1.869.962-2.817.153-.446.293-.892.446-1.339.293-.92.572-1.841.851-2.761.209-.683.418-1.367.614-2.05.209-.683.404-1.381.586-2.064.6-2.092 1.143-4.184 1.659-6.261.167-.669.321-1.353.488-2.022.293-1.255.586-2.496.851-3.737.014-.028.014-.056.028-.084a316.8 316.8 0 0 0 1.255-6.094c.084-.446.167-.892.265-1.339.125-.697.251-1.381.377-2.064.125-.711.251-1.422.376-2.12.474-2.733.892-5.383 1.255-7.879.125-.837.237-1.659.349-2.468l.125-.948c.112-.795.209-1.562.307-2.315.112-.906.223-1.785.321-2.636.084-.697.167-1.381.237-2.05.056-.572.112-1.13.181-1.659.056-.558.112-1.102.154-1.618.237-2.301.39-4.239.516-5.759.028-.474.07-.893.098-1.283v-.056c.028-.363.042-.683.056-.962.056-.879.084-1.353.084-1.353l.237.056.697.167 73.142 18.087s-.139.335-.39.962h-.014c0 .028-.014.056-.028.084a189.11 189.11 0 0 0-2.12 5.703c-.07.209-.139.432-.223.642-.028.084-.056.181-.084.265a4.292 4.292 0 0 0-.139.404 206.503 206.503 0 0 0-2.58 8.116c-.153.53-.321 1.088-.474 1.646a1.612 1.612 0 0 1-.042.139c-.237.851-.488 1.729-.725 2.636a210.105 210.105 0 0 0-1.618 6.414c-.084.363-.167.725-.251 1.102-.084.363-.167.739-.251 1.116-.126.53-.237 1.074-.349 1.604-.042.223-.084.446-.14.669-.084.377-.167.767-.237 1.157-.042.251-.098.502-.153.767-1.255 6.373-2.273 13.304-2.705 20.43-.056.641-.084 1.283-.126 1.924 0 .307-.028.614-.028.934-.042.795-.07 1.59-.07 2.399-.112 4.881.07 9.817.628 14.712a63.83 63.83 0 0 0 .516 3.654c.084.614.181 1.213.307 1.813.098.6.209 1.185.321 1.771.014.028.014.042.014.07.112.544.237 1.088.363 1.618a67.159 67.159 0 0 0 1.436 5.467 33.732 33.732 0 0 0 2.189 5.397c9.622 18.923 36.787 29.661 63.032 44.694 12.355 7.084 24.502 15.13 34.528 25.422 6.917 7.07 12.816 15.228 17.097 24.864 16.385 36.857-6.749 62.572-13.22 84.591-1.464 5.006-2.078 9.831-1.171 14.545a22.307 22.307 0 0 0 1.325 4.393c.307.725.642 1.45 1.032 2.175 2.078 3.877 5.439 7.712 10.459 11.547 13.708 10.473 25.617 21.42 35.839 32.701a209.642 209.642 0 0 1 7.433 8.632 204.715 204.715 0 0 1 5.899 7.516c53.061 71.036 44.541 153.075-2.496 218.297a249.048 249.048 0 0 1-12.551 15.939c-4.464 5.201-6.263 11.699-6.11 18.965z"/><path fill="#EB5276" d="M863.295 610.207c-17.583-3.698-38.185-1.77-53.083-3.265-25.657-2.567-34.664-21.221-34.664-21.221l25.302-34.704 2.822-1.2c2.075 3.875 5.438 7.7 10.453 11.535 20.15 15.4 36.435 31.813 49.17 48.855zM802.64 547.634c-28.144-1.249-59.258-12.902-59.258-12.902 34.615 3.845 52.63-2.773 59.101-6.038-1.928 6.579-2.38 12.824.157 18.94zM762.017 709.246s-.028 0-.07-.014h-.014c-3.026-.321-93.655-10.347-121.043-40.608-2.705-2.984-5.16-6.289-7.377-9.859-7.6-24.097-23.735-90.057 3.277-86.976 36.229 4.128 62.335-12.816 78.497-35.909-18.087 13.861-32.325 23.483-67.717 21.629-23.149-1.199-41.305-19.746-38.419-42.742 4.518-35.978 3.221-71.343 2.677-93.641L537.18 368.93c-15.646 11.435-27.876 29.285-28.908 61.345-1.646 52.141 44.652 98.55 73.797 147.79 15.005 25.338 25.464 51.416 22.493 79.417a81.715 81.715 0 0 1-3.166 15.493 76.596 76.596 0 0 1-1.673 4.937c-7.489 20.053-21.977 36.578-37.568 55.446a572.68 572.68 0 0 0-8.339 10.236c-21.838 27.458-43.774 61.358-50.244 117.195 35.616 21.224 73.923 38.461 114.127 50.453-26.719-41.403-51.276-86.892-44.011-106.262 28.476-75.917 102.608-9.483 164.552 1.813 60.326 10.989 83.127-16.121 84.284-17.543a.193.193 0 0 1 .042-.056c-58.666-21.602-99.832-45.49-60.549-79.948zm-132.73-58.151c-1.325-2.719-2.524-5.55-3.64-8.493l3.64 8.493z"/><path fill="#FFD6C9" d="M764.081 393.824c0 36.238-36.021 39.729-70.794 35.854-7.011-.777-12.764-2.075-17.602-3.825-21.546-7.788-25.106-24.644-42.01-45.776-13.069-16.334-30.465-28.607-46.396-34.281 6.412-2.842 11.938-5.989 15.882-10.109 15.4-16.098 23.218-45.118 27.102-67.499 3.039-17.524 3.688-30.977 3.688-30.977l74.068 18.301s-.138.334-.393.964c-2.449 6.136-15.449 40.624-11.702 72.869.561 4.887 1.505 9.716 2.94 14.387 6.844 22.4 36.572 33.679 65.217 50.092z"/><path fill="#F0BFAE" d="M695.923 329.343c-8.388 2.468-20.612 4.002-33.809-1.249-24.172-9.617-38.952-20.385-44.449 0-5.497 20.395 40.449 69.661 58.02 97.758-21.546-7.788-25.106-24.644-42.01-45.776-13.069-16.334-30.465-28.607-46.396-34.281 6.412-2.842 11.938-5.989 15.882-10.109 15.4-16.098 23.218-45.118 27.102-67.499 19.009-5.782 33.081-9.745 33.465-9.745.767 0 26.492-1.17 43.898-1.967-2.449 6.136-15.449 40.623-11.703 72.868z"/><path fill="#FFDED4" d="M770.282 158.408c15.813 114.572-60.872 165.79-105.926 153.41-35.065-9.636-58.858-64.36-42.213-102.643s54.096-65.747 54.096-65.747c42.482-1.291 94.493-7.959 94.043 14.98z"/><path fill="#523A23" d="M779.422 392.486c-41.066-38.391-60.498-55.04-15.341-122.116 28.685-42.61 29.6-83.873 15.862-108.772-6.864-12.42-14.613-20.307-21.723-25.302-4.392-3.091-8.525-5.064-12.074-6.345.105-1.841-.002-2.889-.002-2.889-67.136-23.857-114.941 9.072-132.698 68.915-12.826 43.226 10.262 91.711 22.576 101.802-14.557-41.305-13.468-90.515 44.796-108.578 26.574-8.239 42.37-19.255 51.754-29.724-7.015 9.644-17.377 16.998-28.082 22.434-10.035 5.096-20.546 9.165-30.699 14.006-8.979 4.282-17.975 9.319-25.146 16.324-7.223 7.056-13.425 16.516-14.747 26.734-.032.248.343.268.415.056 1.553-4.544 3.502-8.77 6.24-12.734 1.345-1.947 2.984-3.637 4.562-5.394a62.99 62.99 0 0 1 5.053-5.007c7.407-6.577 15.744-11.717 24.613-16.081 18.895-9.296 40.025-15.955 54.49-32.105 5.093-5.687 9.353-12.355 11.429-19.687a50.49 50.49 0 0 0 2.641-5.723c4.319 7.824 10.087 18.786 16.847 32.898 6.756 14.092 7.729 29.472 4.956 44.665v.01c-2.645 14.505-8.703 28.843-16.393 41.735 0 0-.02.049-.069.128-16.039 26.866-39.148 47.419-53.172 50.064 0 0-11.771 28.646 4.74 59.947 18.379 34.841 86.351 52.139 77.677 134.271 22.028-30.377 39.562-83.922 1.495-113.532z"/><path fill="#382818" d="M765.143 219.863c2.773-15.193 1.8-30.573-4.956-44.665-7.189-15.006-13.256-26.453-17.652-34.35 0 0 1.622-4.465 2.911-11.152 1.16-6.097 2.046-14.023 1.151-22.097 0 0 8.049 8.45 6.213 25.975-2.116 20.203 34.568 42.906 12.333 86.289zM777.927 506.018c8.674-82.132-59.298-99.43-77.677-134.271-16.511-31.301-4.74-59.947-4.74-59.947 14.023-2.645 37.133-23.198 53.172-50.064-9.275 41.729-37.628 45.861-45.564 61.739-27.949 55.924 104.783 76.96 74.809 182.543z"/><path fill="#FFDED4" d="M807.144 798.967c-35.166 9.244-74.511-9.991-101.642-35.559 0 0-13.099-.501-33.111-2.134h-.01c-51.628-4.209-149.258-15.901-186.833-45.786-26.954-21.438-20.975-137.674-4.307-226.65 8.791-46.957 20.562-86.331 32.029-100.167 43.8-52.857 101.947-18.055 98.564 32.461-3.137 46.878-17.75 109.146-29.767 156.918 0 0-.01.01-.02.039-8.428 33.484-15.577 59.839-16.609 68.758-1.485 12.892 48.343 32.599 91.002 46.907 28.961 9.706 54.617 16.934 58.649 17.829 9.991 2.213 19.933-1.465 35.057-2.252 19.697-1.023 38.952 2.203 42.482 9.736 6.402 13.649-26.345 11.879-26.079 16.098.561 8.87 22.775 7.002 51.628 13.108 28.853 6.098 11.309 44.814-11.033 50.694z"/><path fill="#FFCBBA" d="M656.44 693.755c-3.894 1.111-8.681 1.053-16.57-.358-26.176-4.682-70.005-33.582-81.36-33.139-14.328.559-22.885-5.55-23.819-6.111.728.295 23.858 2.807 25.525-6.029 2.523-13.37 21.142-68.544 21.831-70.029-8.428 33.484-15.577 59.839-16.609 68.758-1.485 12.893 48.343 32.6 91.002 46.908z"/><path fill="#FFDED4" d="M801.324 543.23s-36.979 18.131-28.94 38.104c8.039 19.974 73.495 8.555 85.09 21.433s9.693-71.425-56.15-59.537z"/><path fill="#EB5276" d="M848.249 844.439c-4.465 5.202-6.254 11.702-6.097 18.969-53.014 13.345-109.155-22.372-109.155-22.372 57.321 12.45 100.262 6.415 127.8-12.528a244.505 244.505 0 0 1-12.548 15.931z"/><path fill="#FFCBBA" d="M672.381 761.274c-51.628-4.209-149.258-15.901-186.833-45.786-26.954-21.438-20.975-137.674-4.307-226.65 2.606 17.839-1.448 49.326-2.213 99.381-1.017 66.557-15.012 121.376 60.793 138.529 53.473 12.099 131.341 34.182 132.56 34.526z"/><path fill="#382818" d="M736.904 124.101s-36.085-17.703-76.179 8.488c-.111 1.717 30.347-34.699 76.179-8.488z"/><path fill="#664C34" d="M793.792 315.779s-.513 18.214 33.863 34.119c34.376 15.905 33.349 41.087 28.219 75.955 0 0 2.666-47.351-22.616-58.701-19.255-8.644-41.775-22.898-39.466-51.373zM881.911 474.317c2.1-2.767 27.622 37.094 8.081 75.501 0 0 .77-61.264-8.081-75.501zM719.74 133.313c-20.268-6.158-72.3-.133-88.12 62.722 12.186-19.497 36.311-62.002 88.12-62.722z"/><path fill="#F595B8" d="M348.442 483.97c-5.191-2.73-12.455-1.925-16.103 3.285-3.91 5.584-1.182 13.281-.857 14.16l.62.811-.632-.801c-.759-.549-7.448-5.233-13.874-2.956-5.995 2.124-8.711 8.91-7.467 14.641 2.28 10.501 17.174 14.32 18.859 14.752 10.08 2.583 17.691-1.51 20.317-3.158l.16-.101.183-.174c2.238-2.156 7.786-8.298 7.974-18.344.031-1.777.318-17.121-9.18-22.115zM812.441 29.164c-5.748-1.166-12.495 1.641-14.538 7.665-2.189 6.456 2.586 13.08 3.144 13.833l.822.605-.832-.592c-.883-.314-8.616-2.937-14.147 1.049-5.16 3.719-5.866 10.993-3.066 16.146 5.13 9.442 20.498 8.935 22.236 8.878 10.4-.344 16.56-6.406 18.619-8.723l.125-.142.127-.219c1.545-2.696 5.149-10.147 2.515-19.843-.464-1.714-4.487-16.523-15.005-18.657zM940.492 341.326c-.11-3.832-2.897-7.711-7.034-8.119-4.434-.436-7.943 3.585-8.34 4.052l-.263.613.254-.617c.069-.608.593-5.92-2.765-8.85-3.132-2.734-7.868-2.105-10.733.442-5.25 4.666-2.649 14.373-2.355 15.471 1.761 6.569 6.533 9.592 8.313 10.559l.109.059.158.048c1.945.584 7.223 1.774 13.004-1.34 1.022-.551 9.853-5.307 9.652-12.318zM974.355 306.142c-.096-2.177-1.714-4.357-4.069-4.553-2.524-.209-4.483 2.107-4.705 2.376l-.144.351.139-.353c.034-.346.285-3.37-1.649-5.006-1.804-1.526-4.49-1.128-6.096.345-2.943 2.698-1.38 8.192-1.204 8.814 1.058 3.718 3.796 5.395 4.817 5.929l.062.032.09.026a9.677 9.677 0 0 0 7.379-.875c.578-.323 5.556-3.103 5.38-7.086zM384.417 245.375c-1.816-1.204-4.531-1.179-6.075.611-1.655 1.918-.935 4.865-.848 5.202l.199.323-.204-.32c-.26-.231-2.557-2.214-5.018-1.613-2.296.561-3.554 2.967-3.309 5.132.449 3.967 5.811 5.937 6.418 6.16 3.629 1.333 6.596.105 7.628-.406l.063-.031.074-.058a9.681 9.681 0 0 0 3.635-6.481c.079-.656.76-6.317-2.563-8.519z"/></svg>